<svg version="1.1" id="Layer_1" xmlns="http://www.w3.org/2000/svg" xmlns:xlink="http://www.w3.org/1999/xlink" x="0px" y="0px"
	 width="100%" viewBox="0 0 200 200" enable-background="new 0 0 200 200" xml:space="preserve">
<path fill="#FDFEFE" opacity="1.000000" stroke="none" 
	d="
M1.000000,75.000000 
	C1.000000,50.000008 1.000000,25.500011 1.000000,1.000013 
	C67.666649,1.000009 134.333298,1.000009 200.999954,1.000004 
	C200.999969,67.666634 200.999969,134.333267 200.999985,200.999908 
	C134.333389,200.999939 67.666771,200.999939 1.000080,200.999969 
	C1.000000,159.166672 1.000000,117.333336 1.000000,75.000000 
M62.081841,59.428490 
	C62.211422,59.730133 62.434353,59.924953 63.034241,60.404545 
	C63.034241,60.404545 63.105785,60.882721 62.380112,60.954071 
	C61.591156,61.644455 60.802204,62.334843 59.673283,63.527348 
	C58.789127,64.026199 57.904976,64.525047 56.345543,65.095665 
	C55.594524,66.157951 54.843510,67.220245 53.684021,68.777435 
	C52.071079,69.795418 50.458134,70.813393 48.337715,71.912209 
	C48.075981,72.121803 47.814247,72.331398 46.864014,72.708061 
	C44.389301,74.072151 41.997330,75.626221 39.417812,76.749672 
	C36.540714,78.002739 35.734550,79.956581 35.749420,82.996368 
	C35.859348,105.470695 35.632046,127.948647 35.994591,150.417648 
	C36.049957,153.848831 38.598881,157.239761 40.527508,161.118622 
	C46.023533,164.361786 51.519558,167.604950 57.391655,171.126541 
	C57.391655,171.126541 57.857677,171.168594 58.239899,171.728088 
	C64.264549,175.123245 70.289207,178.518402 76.624298,182.427689 
	C77.336067,182.758224 78.047844,183.088760 78.818184,183.264908 
	C78.818184,183.264908 78.657394,183.302505 78.919716,183.793121 
	C79.265572,183.900787 79.611420,184.008453 79.964714,184.031311 
	C79.964714,184.031311 79.891899,184.075424 80.269867,184.641556 
	C85.496620,187.535950 90.723366,190.430359 96.152542,193.995743 
	C101.309128,197.416183 113.281898,194.086716 117.817421,188.034271 
	C118.540726,187.349045 119.264030,186.663803 119.998131,186.001480 
	C119.998131,186.001480 119.978020,185.983444 120.574203,186.010590 
	C121.051277,185.690109 121.528351,185.369629 122.605194,184.770172 
	C124.046959,183.832977 125.488724,182.895798 127.619858,182.012787 
	C128.080917,182.009140 128.541992,182.005493 129.022537,182.778946 
	C130.168640,183.494476 131.956772,185.057968 132.340866,184.767120 
	C133.510254,183.881744 134.137863,182.280869 135.050919,180.240906 
	C135.303925,179.084045 135.556915,177.927170 136.007355,176.828033 
	C136.007355,176.828033 135.806931,176.793488 136.600906,176.934265 
	C140.294144,176.348053 143.866577,175.581482 145.621399,170.833755 
	C150.127853,167.912155 154.634293,164.990540 159.767960,162.010757 
	C160.539429,161.399109 161.310898,160.787460 162.628372,159.931015 
	C162.934479,159.429108 163.240570,158.927200 163.564911,158.404388 
	C163.564911,158.404388 163.588089,158.431046 164.116989,157.924545 
	C164.816467,155.093170 166.093094,152.268158 166.124420,149.429413 
	C166.382477,126.047935 166.534134,102.662971 166.359497,79.281746 
	C166.335815,76.110062 164.325958,72.953217 163.120346,69.150894 
	C162.424927,68.095955 161.729507,67.041023 160.972824,65.377213 
	C160.699738,65.090279 160.426666,64.803352 160.071960,63.844318 
	C156.487595,57.690418 152.925079,51.523659 149.312149,45.386566 
	C146.255203,40.193882 143.139908,35.035538 139.970474,29.154680 
	C138.664993,27.081736 137.359497,25.008793 135.910553,22.464727 
	C135.910553,22.464727 135.722565,22.009531 135.707474,21.347483 
	C133.847351,19.187862 131.987213,17.028244 130.002014,14.187462 
	C124.542709,7.499786 118.159554,6.090331 110.812447,10.163126 
	C105.115631,13.321106 99.535301,16.689228 93.294662,20.150280 
	C91.981819,20.815184 90.668968,21.480087 88.584244,22.050119 
	C87.055603,22.090176 85.234787,21.601988 84.047264,22.258793 
	C77.844498,25.689461 71.940651,29.675076 65.665047,32.955368 
	C59.639843,36.104771 56.152340,42.599709 58.419891,48.666576 
	C58.382866,49.070419 58.345840,49.474258 57.714432,50.223877 
	C58.124264,51.153805 58.534096,52.083733 59.168034,53.278919 
	C59.168034,53.278919 59.138855,53.624947 59.153984,54.162872 
	C59.370857,54.435673 59.587727,54.708477 60.080074,55.260948 
	C60.080074,55.260948 60.155571,55.646175 60.181999,56.210415 
	C60.430557,56.479778 60.679119,56.749146 61.153461,57.240997 
	C61.153461,57.240997 61.186245,57.556282 61.208450,58.157352 
	C61.479664,58.434956 61.750881,58.712555 61.997452,58.997940 
	C61.997452,58.997940 62.013741,58.976562 62.081841,59.428490 
M57.658047,35.182236 
	C57.247322,34.520847 56.836597,33.859455 56.425869,33.198063 
	C56.016998,33.599575 55.608128,34.001087 55.199261,34.402603 
	C55.853771,34.824341 56.508286,35.246078 57.658047,35.182236 
z"/>
<path fill="#145299" opacity="1.000000" stroke="none" 
	d="
M135.722565,22.009531 
	C135.722565,22.009531 135.910553,22.464727 135.973267,23.090115 
	C137.348602,26.468138 138.661255,29.220776 139.987885,32.358570 
	C142.482208,37.824375 144.962555,42.905025 147.844681,48.808655 
	C144.731201,48.577869 143.109055,48.457626 141.798431,48.360477 
	C144.033569,54.027485 146.149277,59.391682 148.264984,64.755875 
	C147.788422,64.986710 147.311874,65.217545 146.835312,65.448380 
	C145.800766,65.066299 144.766205,64.684212 143.747238,64.298325 
	C143.762817,64.294525 143.756561,64.265533 143.831940,63.846458 
	C144.497574,57.153782 140.173920,54.129078 135.841522,51.109329 
	C135.895706,51.072670 135.845673,51.193581 135.891281,50.789886 
	C135.305344,48.345146 134.228119,46.321999 134.145279,44.258926 
	C134.016663,41.055496 132.291107,40.791084 129.629639,40.953770 
	C129.191132,40.349770 128.996185,39.858913 128.836594,39.013451 
	C128.419266,38.246929 127.966583,37.835011 127.549301,37.438946 
	C127.584702,37.454800 127.537872,37.393703 127.592484,37.044014 
	C127.423531,35.787655 127.199959,34.880981 127.338348,33.941605 
	C128.244598,32.506004 129.302658,31.065754 129.204056,29.709604 
	C129.078873,27.988113 127.933655,26.361488 127.373116,24.646618 
	C126.229340,21.147396 128.164307,20.598297 131.350189,21.035000 
	C133.039337,21.379507 134.380951,21.694519 135.722565,22.009531 
z"/>
<path fill="#1B4C91" opacity="1.000000" stroke="none" 
	d="
M143.731659,64.302132 
	C144.766205,64.684212 145.800766,65.066299 146.835312,65.448380 
	C147.311874,65.217545 147.788422,64.986710 148.264984,64.755875 
	C146.149277,59.391682 144.033569,54.027485 141.798431,48.360477 
	C143.109055,48.457626 144.731201,48.577869 147.844681,48.808655 
	C144.962555,42.905025 142.482208,37.824375 139.997131,32.006943 
	C140.011749,30.800770 140.031097,30.331383 140.050446,29.861994 
	C143.139908,35.035538 146.255203,40.193882 149.312149,45.386566 
	C152.925079,51.523659 156.487595,57.690418 160.063736,64.550949 
	C160.035995,65.505165 160.016464,65.752754 159.652161,66.052269 
	C156.890182,67.722557 155.901581,69.662163 156.852600,72.736832 
	C157.473785,74.745148 157.416946,77.250771 153.665833,76.751015 
	C152.155670,76.293930 150.971024,76.087517 149.687454,75.863945 
	C149.588516,75.846794 149.455963,75.695892 149.691406,75.339157 
	C151.109711,71.769020 150.952942,69.263008 146.634491,68.605484 
	C145.609879,66.968407 144.670761,65.635269 143.731659,64.302132 
z"/>
<path fill="#116EB4" opacity="1.000000" stroke="none" 
	d="
M63.105785,60.882721 
	C63.105785,60.882721 63.034241,60.404545 62.944843,60.015152 
	C62.855446,59.625759 62.878826,59.225639 62.914810,58.858734 
	C62.958931,58.000370 62.967068,57.508915 63.257652,57.209213 
	C66.015038,60.820122 68.489983,64.239273 70.423248,66.910088 
	C72.396767,64.817719 74.197479,62.908550 76.166496,61.314453 
	C77.871811,62.084572 79.408829,62.539631 81.034996,63.171505 
	C81.124146,63.348324 81.140518,63.744030 81.129578,64.116966 
	C82.472191,66.287598 83.825729,68.085289 85.124542,69.917648 
	C85.069801,69.952309 85.130905,69.838043 85.088669,70.238777 
	C86.376244,74.088661 87.706047,77.537804 88.677551,80.955544 
	C85.258659,80.122871 83.570854,74.797577 78.710434,78.249863 
	C80.544563,80.569839 82.549034,82.517570 83.768845,84.871849 
	C84.483627,86.251419 83.948029,88.278839 83.633972,89.960396 
	C80.823219,86.933037 78.353401,83.960114 75.703445,80.702682 
	C74.274368,78.349831 73.025414,76.281479 72.172134,74.138794 
	C75.747704,72.002823 75.751350,71.914680 72.410583,69.293930 
	C72.185951,71.084343 71.988747,72.656143 71.536713,74.121460 
	C70.910309,73.622841 70.538750,73.230690 70.104553,72.502563 
	C68.754692,70.080086 67.467468,67.993568 66.120483,65.575729 
	C65.087868,63.776890 64.115005,62.309376 63.119217,60.840427 
	C63.096291,60.838997 63.105785,60.882721 63.105785,60.882721 
z"/>
<path fill="#206AAA" opacity="1.000000" stroke="none" 
	d="
M89.356125,22.144989 
	C90.668968,21.480087 91.981819,20.815184 93.908760,20.186424 
	C96.013878,20.145472 97.504898,20.068375 99.308952,20.132544 
	C101.753059,22.185070 103.884132,24.096331 105.858765,26.313915 
	C104.136971,27.411562 102.571602,28.202883 101.003204,28.997082 
	C101.000175,28.999958 101.004829,28.995703 100.916824,28.826565 
	C100.554253,28.771811 100.279694,28.886192 100.003189,29.249067 
	C100.001251,29.497562 99.995552,29.994532 99.725204,30.019238 
	C99.696808,30.823986 99.938766,31.604025 100.184601,32.552460 
	C100.188469,32.720856 100.170250,33.057243 99.869629,33.090706 
	C99.372498,33.169456 99.175995,33.214745 98.729324,33.206814 
	C98.312660,33.430241 98.146149,33.706886 97.989822,33.991688 
	C98.000000,33.999847 97.981186,33.981049 97.664703,34.105469 
	C94.871338,35.799736 92.394447,37.369587 89.948242,38.966873 
	C89.978935,38.994305 89.961517,38.913841 89.685493,38.942131 
	C89.187477,39.248333 88.965492,39.526249 88.816681,39.809086 
	C88.889870,39.814011 88.769157,39.730648 88.422249,39.766762 
	C85.788528,40.943542 83.501717,42.084213 81.132881,43.138885 
	C81.050850,43.052891 80.887016,42.880672 80.964813,42.545338 
	C81.948746,41.328892 82.753937,40.303066 83.776909,39.589413 
	C92.458435,33.532944 92.470711,33.391457 83.923943,27.568752 
	C85.824707,25.556826 87.590416,23.850906 89.356125,22.144989 
M97.589561,28.518078 
	C97.589561,28.518078 97.476341,28.586296 97.589561,28.518078 
z"/>
<path fill="#116FB1" opacity="1.000000" stroke="none" 
	d="
M76.313858,181.913559 
	C70.289207,178.518402 64.264549,175.123245 58.102379,171.382507 
	C57.964863,171.036926 58.067165,170.902863 58.450974,170.929565 
	C61.414783,171.825500 63.994789,172.694733 66.574692,173.568115 
	C69.391617,171.375824 72.208649,169.179367 75.337486,167.142670 
	C78.381172,168.311981 81.113060,169.321518 84.070610,170.309723 
	C84.627106,170.320938 84.866821,170.485825 85.023605,171.125671 
	C85.359322,172.308990 85.686821,173.149689 85.673340,174.047989 
	C85.553253,177.406799 85.774162,180.708008 85.560303,184.007767 
	C83.380997,184.029343 81.636452,184.052383 79.891899,184.075424 
	C79.891899,184.075424 79.964714,184.031311 79.835320,183.818207 
	C79.356415,183.504257 79.006905,183.403381 78.657394,183.302505 
	C78.657394,183.302505 78.818184,183.264908 78.738205,183.015594 
	C77.876762,182.482040 77.095314,182.197800 76.313858,181.913559 
z"/>
<path fill="#2066AE" opacity="1.000000" stroke="none" 
	d="
M80.080887,184.358490 
	C81.636452,184.052383 83.380997,184.029343 85.627159,184.374725 
	C88.438416,187.681488 91.023796,187.449615 95.315331,185.628571 
	C92.074539,184.039185 90.158318,183.099411 87.208061,181.652496 
	C90.066376,180.075012 92.069473,178.969513 94.482780,177.875275 
	C97.591980,178.248154 100.290962,178.609741 102.866013,179.273315 
	C102.161003,181.382095 101.579918,183.188904 101.064049,185.352173 
	C102.241997,186.042343 103.354843,186.375732 104.467445,186.709885 
	C105.981361,187.164581 107.495102,187.619888 108.980911,188.385956 
	C108.644089,189.469681 108.335289,190.242371 107.648422,191.111740 
	C103.496941,191.913864 99.723526,192.619324 95.950111,193.324768 
	C90.723366,190.430359 85.496620,187.535950 80.080887,184.358490 
z"/>
<path fill="#1A5B9C" opacity="1.000000" stroke="none" 
	d="
M98.995918,19.991276 
	C97.504898,20.068375 96.013878,20.145472 94.213028,20.093254 
	C99.535301,16.689228 105.115631,13.321106 110.812447,10.163126 
	C118.159554,6.090331 124.542709,7.499786 129.993225,14.600998 
	C129.984436,15.014535 129.841309,15.159959 129.461227,15.112026 
	C128.188812,15.307052 127.089539,15.302377 126.444550,15.841345 
	C124.788544,17.225136 123.242882,18.772581 121.844345,20.417227 
	C121.288971,21.070330 121.238487,22.152771 120.626251,22.883850 
	C118.860947,22.488630 117.427528,22.249302 115.881775,21.785881 
	C115.488327,21.392855 115.207214,21.223923 114.699371,21.061760 
	C114.472633,21.068531 114.019058,21.059305 113.861923,20.739098 
	C112.822289,19.496511 111.537933,18.722357 111.132759,17.623917 
	C109.925278,14.350301 107.487778,14.447944 105.194206,15.553116 
	C102.938911,16.639845 101.047188,18.481108 98.995918,19.991276 
M118.578773,15.042080 
	C119.715950,14.122849 120.853134,13.203620 122.674919,11.730992 
	C113.101036,9.911442 111.424973,11.915019 114.097031,17.066210 
	C115.331581,16.449291 116.575310,15.827791 118.578773,15.042080 
z"/>
<path fill="#2A4278" opacity="1.000000" stroke="none" 
	d="
M163.235764,69.789497 
	C164.325958,72.953217 166.335815,76.110062 166.359497,79.281746 
	C166.534134,102.662971 166.382477,126.047935 166.124420,149.429413 
	C166.093094,152.268158 164.816467,155.093170 163.714447,157.839691 
	C163.531097,156.832016 163.750290,155.909195 163.978317,154.613586 
	C163.989746,153.494278 163.992355,152.747757 163.998535,151.555725 
	C164.334900,147.343201 164.936951,143.577484 164.955292,139.808945 
	C165.050491,120.259651 165.021652,100.709557 164.951462,81.160042 
	C164.945282,79.439781 164.328873,77.721710 163.994781,75.664352 
	C163.663452,74.549660 163.333252,73.773232 163.001251,72.630440 
	C162.976227,71.532631 162.953018,70.801186 163.005524,69.998840 
	C163.081253,69.927933 163.235764,69.789497 163.235764,69.789497 
z"/>
<path fill="#317DAE" opacity="1.000000" stroke="none" 
	d="
M39.994499,160.649307 
	C38.598881,157.239761 36.049957,153.848831 35.994591,150.417648 
	C35.632046,127.948647 35.859348,105.470695 35.749420,82.996368 
	C35.734550,79.956581 36.540714,78.002739 39.417812,76.749672 
	C41.997330,75.626221 44.389301,74.072151 47.328148,72.750275 
	C47.792282,72.792488 48.035019,73.041138 47.824482,73.294426 
	C46.408939,75.032219 45.203938,76.516716 43.777420,78.287766 
	C37.209167,79.520210 36.276901,83.729393 36.953407,89.155151 
	C37.275425,91.737816 37.034245,94.390694 37.036812,97.479538 
	C37.020073,113.421158 36.904766,128.896378 37.099121,144.367706 
	C37.139553,147.586578 38.326641,150.791031 39.024895,154.381882 
	C39.422295,156.504700 39.780087,158.247787 40.106674,160.156479 
	C40.075466,160.322098 39.994499,160.649307 39.994499,160.649307 
z"/>
<path fill="#317DAE" opacity="1.000000" stroke="none" 
	d="
M48.845188,71.831367 
	C50.458134,70.813393 52.071079,69.795418 54.203102,68.437393 
	C55.472580,67.661850 56.222980,67.226334 57.331253,66.855392 
	C58.114273,69.263481 58.539417,71.606987 58.975624,73.963890 
	C58.986694,73.977280 58.967354,73.960518 58.677193,73.982651 
	C57.941277,74.347656 57.495522,74.690536 56.739231,75.106438 
	C55.548237,75.752243 54.667778,76.325020 53.467354,77.027161 
	C51.351219,78.198860 49.555058,79.241196 46.593781,80.959656 
	C49.627090,82.802055 51.756084,84.095184 53.957481,85.458252 
	C54.029877,85.528191 54.220589,85.592712 54.402618,85.846291 
	C55.309181,86.419434 56.033714,86.738998 56.902031,87.242798 
	C57.276978,87.675491 57.560318,87.774452 58.100456,87.901703 
	C58.482491,88.113922 58.659897,88.148361 58.903908,88.175514 
	C58.970509,88.168236 58.840298,88.159500 58.970703,88.410568 
	C59.513554,89.037560 59.926006,89.413490 60.011105,89.847458 
	C59.463467,89.929932 59.243183,89.954361 58.668640,89.824196 
	C54.542351,88.112259 50.770321,86.554924 46.785122,84.696396 
	C46.058292,82.272270 45.544628,80.149338 45.420433,78.022285 
	C49.307369,77.532196 52.460468,76.572212 54.069832,72.177223 
	C51.959736,72.177223 50.545769,72.177223 49.060913,72.090126 
	C48.990028,72.003029 48.845188,71.831367 48.845188,71.831367 
z"/>
<path fill="#ECF8FB" opacity="1.000000" stroke="none" 
	d="
M88.970184,22.097553 
	C87.590416,23.850906 85.824707,25.556826 83.719666,27.589363 
	C83.380325,27.915979 82.998009,28.064995 82.693428,27.961681 
	C78.878967,29.529455 75.369095,31.200542 71.926544,32.897446 
	C71.993881,32.923267 71.883751,32.830135 71.534172,32.869175 
	C68.723351,34.544487 66.262115,36.180756 63.900028,37.892281 
	C63.999184,37.967529 63.816525,37.798061 63.560616,37.883286 
	C63.010883,38.397598 62.717064,38.826687 62.355194,39.344513 
	C62.287144,39.433254 62.192993,39.636127 62.052147,39.703766 
	C61.738544,39.903961 61.629921,40.076828 61.570740,40.304577 
	C61.556061,40.319145 61.519989,40.293880 61.219196,40.498116 
	C60.037594,43.159046 59.156784,45.615742 58.275970,48.072433 
	C56.152340,42.599709 59.639843,36.104771 65.665047,32.955368 
	C71.940651,29.675076 77.844498,25.689461 84.047264,22.258793 
	C85.234787,21.601988 87.055603,22.090176 88.970184,22.097553 
z"/>
<path fill="#21528D" opacity="1.000000" stroke="none" 
	d="
M159.140732,162.068924 
	C154.634293,164.990540 150.127853,167.912155 145.005402,171.095062 
	C141.528564,173.168747 138.667755,174.981125 135.806946,176.793488 
	C135.806931,176.793488 136.007355,176.828033 135.592133,176.831726 
	C134.582138,177.059540 133.987396,177.283646 133.286591,177.066742 
	C132.475708,173.656357 133.466934,172.196732 136.636597,171.484818 
	C138.586548,171.046844 140.222076,169.208893 142.000946,167.666412 
	C142.002274,166.889038 142.001434,166.444824 142.109924,165.782288 
	C142.418854,165.291672 142.679230,165.103470 143.331146,165.001770 
	C144.102905,165.005310 144.543900,165.006470 145.024323,165.304047 
	C147.051514,164.741211 149.039276,163.881973 151.273773,162.821594 
	C151.804184,161.709686 152.087875,160.798935 152.371567,159.888199 
	C152.436951,160.359253 152.502335,160.830292 152.567734,161.301346 
	C153.712021,161.202637 154.856308,161.103912 156.332489,161.004471 
	C157.106750,161.004456 157.549149,161.005173 158.123291,161.240829 
	C158.550262,161.673492 158.845505,161.871201 159.140732,162.068924 
z"/>
<path fill="#1A7CB9" opacity="1.000000" stroke="none" 
	d="
M40.261002,160.883972 
	C39.994499,160.649307 40.075466,160.322098 40.484684,160.161316 
	C42.370365,160.598465 43.879356,161.127655 45.316795,161.808014 
	C48.745277,163.430786 52.007744,166.279266 56.174927,163.288605 
	C56.597374,165.706482 56.825695,167.850998 57.041145,170.208527 
	C57.028278,170.421524 57.015583,170.848129 57.015587,170.848129 
	C51.519558,167.604950 46.023533,164.361786 40.261002,160.883972 
z"/>
<path fill="#D0E8F4" opacity="1.000000" stroke="none" 
	d="
M96.051331,193.660248 
	C99.723526,192.619324 103.496941,191.913864 108.007683,191.152069 
	C110.181946,190.407684 111.618881,189.719635 113.334854,188.974960 
	C114.095467,188.667542 114.577042,188.416748 115.345352,188.121140 
	C116.001678,187.963531 116.371284,187.850739 116.843056,187.842331 
	C116.945229,187.946701 117.147736,188.157242 117.147736,188.157242 
	C113.281898,194.086716 101.309128,197.416183 96.051331,193.660248 
z"/>
<path fill="#EDF7FA" opacity="1.000000" stroke="none" 
	d="
M66.180244,65.907059 
	C67.467468,67.993568 68.754692,70.080086 70.020706,72.584526 
	C69.999489,73.002457 69.832275,73.166733 69.466812,73.109764 
	C66.731377,73.030945 64.361397,73.009094 62.035202,72.612556 
	C64.173302,68.542984 61.688206,65.874939 60.013252,63.025230 
	C60.802204,62.334843 61.591156,61.644455 62.742950,60.918396 
	C63.105785,60.882721 63.096291,60.838997 63.071968,61.225857 
	C64.091850,63.044163 65.136047,64.475609 66.180244,65.907059 
z"/>
<path fill="#D5F3FB" opacity="1.000000" stroke="none" 
	d="
M59.843269,63.276291 
	C61.688206,65.874939 64.173302,68.542984 61.739975,72.747620 
	C60.588833,73.488411 59.776695,73.719452 58.964561,73.950500 
	C58.539417,71.606987 58.114273,69.263481 57.335754,66.560684 
	C56.995190,65.808907 57.008007,65.416397 57.020821,65.023895 
	C57.904976,64.525047 58.789127,64.026199 59.843269,63.276291 
z"/>
<path fill="#2D5E92" opacity="1.000000" stroke="none" 
	d="
M126.930489,181.958603 
	C125.488724,182.895798 124.046959,183.832977 122.003616,184.853912 
	C120.927361,185.286255 120.452682,185.634842 119.978012,185.983429 
	C119.978020,185.983444 119.998131,186.001480 119.707680,185.985809 
	C119.047760,186.054550 118.678291,186.138977 118.214630,185.864258 
	C118.083786,185.013016 118.047127,184.520920 118.370850,183.984924 
	C122.135101,183.367905 123.331276,177.666946 128.257538,179.980042 
	C128.735550,180.012863 128.926559,180.028900 128.931824,180.276093 
	C128.140884,180.991013 127.535683,181.474808 126.930489,181.958603 
z"/>
<path fill="#20458B" opacity="1.000000" stroke="none" 
	d="
M159.454346,162.039841 
	C158.845505,161.871201 158.550262,161.673492 158.280884,160.884766 
	C159.012421,157.263611 159.262390,153.747208 163.969498,154.986374 
	C163.750290,155.909195 163.531097,156.832016 163.449982,158.092941 
	C163.588089,158.431046 163.564911,158.404388 163.207626,158.405838 
	C162.594345,158.996796 162.338364,159.586319 162.082382,160.175827 
	C161.310898,160.787460 160.539429,161.399109 159.454346,162.039841 
z"/>
<path fill="#2D75A5" opacity="1.000000" stroke="none" 
	d="
M58.347931,48.369507 
	C59.156784,45.615742 60.037594,43.159046 61.323814,40.921799 
	C59.518280,46.639431 58.578159,52.037876 62.975204,57.017456 
	C62.967068,57.508915 62.958931,58.000370 62.702591,58.782600 
	C62.454388,59.073376 62.013741,58.976562 62.013741,58.976562 
	C62.013741,58.976562 61.997452,58.997940 61.977356,58.702084 
	C61.700256,58.122913 61.443249,57.839600 61.186241,57.556282 
	C61.186245,57.556282 61.153461,57.240997 61.023220,56.848137 
	C60.647175,56.185577 60.401375,55.915878 60.155571,55.646175 
	C60.155571,55.646175 60.080074,55.260948 59.941925,54.850334 
	C59.582138,54.168125 59.360497,53.896534 59.138855,53.624947 
	C59.138855,53.624947 59.168034,53.278919 59.080753,52.818485 
	C58.765255,51.531399 58.537037,50.704750 58.308815,49.878101 
	C58.345840,49.474258 58.382866,49.070419 58.347931,48.369507 
z"/>
<path fill="#DCF0FA" opacity="1.000000" stroke="none" 
	d="
M127.275177,181.985687 
	C127.535683,181.474808 128.140884,180.991013 129.239410,180.201447 
	C130.923401,179.095886 132.114059,178.296112 133.328064,177.487305 
	C133.351395,177.478256 133.392654,177.507782 133.392654,177.507782 
	C133.987396,177.283646 134.582138,177.059540 135.493408,176.802856 
	C135.556915,177.927170 135.303925,179.084045 134.637421,180.652466 
	C132.483627,181.376633 130.743347,181.689224 129.003052,182.001831 
	C128.541992,182.005493 128.080917,182.009140 127.275177,181.985687 
z"/>
<path fill="#DCF0FA" opacity="1.000000" stroke="none" 
	d="
M136.203918,176.863892 
	C138.667755,174.981125 141.528564,173.168747 144.725555,171.311310 
	C143.866577,175.581482 140.294144,176.348053 136.203918,176.863892 
z"/>
<path fill="#1A5B9C" opacity="1.000000" stroke="none" 
	d="
M135.715027,21.678507 
	C134.380951,21.694519 133.039337,21.379507 131.343979,20.655285 
	C130.607254,18.550701 130.224289,16.855331 129.841309,15.159959 
	C129.841309,15.159959 129.984436,15.014535 130.055756,14.941580 
	C131.987213,17.028244 133.847351,19.187862 135.715027,21.678507 
z"/>
<path fill="#F9FDF5" opacity="1.000000" stroke="none" 
	d="
M129.012787,182.390381 
	C130.743347,181.689224 132.483627,181.376633 134.600159,181.011292 
	C134.137863,182.280869 133.510254,183.881744 132.340866,184.767120 
	C131.956772,185.057968 130.168640,183.494476 129.012787,182.390381 
z"/>
<path fill="#1A5B9C" opacity="1.000000" stroke="none" 
	d="
M140.010468,29.508337 
	C140.031097,30.331383 140.011749,30.800770 139.983154,31.621786 
	C138.661255,29.220776 137.348602,26.468138 136.044983,23.325674 
	C137.359497,25.008793 138.664993,27.081736 140.010468,29.508337 
z"/>
<path fill="#ECF8FB" opacity="1.000000" stroke="none" 
	d="
M57.410423,35.425026 
	C56.508286,35.246078 55.853771,34.824341 55.199257,34.402603 
	C55.608128,34.001087 56.016998,33.599575 56.425873,33.198067 
	C56.836597,33.859455 57.247322,34.520847 57.410423,35.425026 
z"/>
<path fill="#ECF8FB" opacity="1.000000" stroke="none" 
	d="
M56.683182,65.059784 
	C57.008007,65.416397 56.995190,65.808907 56.977879,66.496117 
	C56.222980,67.226334 55.472580,67.661850 54.407337,68.189941 
	C54.843510,67.220245 55.594524,66.157951 56.683182,65.059784 
z"/>
<path fill="#2A4278" opacity="1.000000" stroke="none" 
	d="
M161.034088,65.986084 
	C161.729507,67.041023 162.424927,68.095955 163.178055,69.470200 
	C163.235764,69.789497 163.081253,69.927933 162.685226,69.977371 
	C161.860703,70.015099 161.432190,70.003395 161.001068,69.603554 
	C160.959381,68.184967 160.920319,67.154518 160.920761,66.091019 
	C160.960281,66.057976 161.034088,65.986084 161.034088,65.986084 
z"/>
<path fill="#ECF8FB" opacity="1.000000" stroke="none" 
	d="
M58.011627,50.050987 
	C58.537037,50.704750 58.765255,51.531399 58.968697,52.685856 
	C58.534096,52.083733 58.124264,51.153805 58.011627,50.050987 
z"/>
<path fill="#D0E8F4" opacity="1.000000" stroke="none" 
	d="
M118.308815,186.223404 
	C118.678291,186.138977 119.047760,186.054550 119.702286,185.974350 
	C119.264030,186.663803 118.540726,187.349045 117.482574,188.095764 
	C117.147736,188.157242 116.945229,187.946701 116.908142,187.656799 
	C116.871063,187.366898 117.017853,187.002029 117.009247,186.998810 
	C117.000633,186.995605 116.997017,187.013229 117.264740,186.975555 
	C117.761543,186.680115 117.990616,186.422348 118.239281,186.183380 
	C118.258873,186.202148 118.308815,186.223404 118.308815,186.223404 
z"/>
<path fill="#2066AE" opacity="1.000000" stroke="none" 
	d="
M76.469078,182.170624 
	C77.095314,182.197800 77.876762,182.482040 78.708923,183.092789 
	C78.047844,183.088760 77.336067,182.758224 76.469078,182.170624 
z"/>
<path fill="#D0E8F4" opacity="1.000000" stroke="none" 
	d="
M120.276108,185.997009 
	C120.452682,185.634842 120.927361,185.286255 121.703735,184.993408 
	C121.528351,185.369629 121.051277,185.690109 120.276108,185.997009 
z"/>
<path fill="#2A4278" opacity="1.000000" stroke="none" 
	d="
M162.355377,160.053421 
	C162.338364,159.586319 162.594345,158.996796 163.198502,158.416290 
	C163.240570,158.927200 162.934479,159.429108 162.355377,160.053421 
z"/>
<path fill="#D5F3FB" opacity="1.000000" stroke="none" 
	d="
M61.197346,57.856819 
	C61.443249,57.839600 61.700256,58.122913 61.989677,58.698193 
	C61.750881,58.712555 61.479664,58.434956 61.197346,57.856819 
z"/>
<path fill="#D5F3FB" opacity="1.000000" stroke="none" 
	d="
M62.047791,59.202526 
	C62.013741,58.976562 62.454388,59.073376 62.666607,59.149506 
	C62.878826,59.225639 62.855446,59.625759 62.803043,59.819355 
	C62.434353,59.924953 62.211422,59.730133 62.047791,59.202526 
z"/>
<path fill="#2066AE" opacity="1.000000" stroke="none" 
	d="
M78.788559,183.547821 
	C79.006905,183.403381 79.356415,183.504257 79.831596,183.860611 
	C79.611420,184.008453 79.265572,183.900787 78.788559,183.547821 
z"/>
<path fill="#D5F3FB" opacity="1.000000" stroke="none" 
	d="
M60.168785,55.928295 
	C60.401375,55.915878 60.647175,56.185577 60.910328,56.736893 
	C60.679119,56.749146 60.430557,56.479778 60.168785,55.928295 
z"/>
<path fill="#317DAE" opacity="1.000000" stroke="none" 
	d="
M47.672394,72.666740 
	C47.814247,72.331398 48.075981,72.121803 48.591454,71.871788 
	C48.845188,71.831367 48.990028,72.003029 48.907089,72.268600 
	C48.602604,72.767738 48.339561,72.936729 48.035019,73.041138 
	C48.035019,73.041138 47.792282,72.792488 47.672394,72.666740 
z"/>
<path fill="#ECF8FB" opacity="1.000000" stroke="none" 
	d="
M59.146420,53.893909 
	C59.360497,53.896534 59.582138,54.168125 59.804192,54.710495 
	C59.587727,54.708477 59.370857,54.435673 59.146420,53.893909 
z"/>
<path fill="#20458B" opacity="1.000000" stroke="none" 
	d="
M159.996948,66.000343 
	C160.016464,65.752754 160.035995,65.505165 160.104553,64.887001 
	C160.426666,64.803352 160.699738,65.090279 161.003448,65.681648 
	C161.034088,65.986084 160.960281,66.057976 160.701431,66.049347 
	C160.442581,66.040718 159.996948,66.000343 159.996948,66.000343 
z"/>
<path fill="#116FB1" opacity="1.000000" stroke="none" 
	d="
M57.203621,170.987335 
	C57.015583,170.848129 57.028278,170.421524 57.248993,170.311188 
	C57.730648,170.382248 57.929802,170.616257 58.067165,170.902863 
	C58.067165,170.902863 57.964863,171.036926 57.911270,171.102753 
	C57.857677,171.168594 57.391655,171.126541 57.203621,170.987335 
z"/>
<path fill="#FEFEFE" opacity="1.000000" stroke="none" 
	d="
M98.979492,33.260033 
	C99.175995,33.214745 99.372498,33.169456 100.191772,33.081837 
	C101.548592,32.452629 102.282646,31.865747 103.179230,31.121807 
	C103.341751,30.964750 103.791710,30.921553 104.035858,30.886417 
	C104.605675,30.727486 104.839111,30.506327 105.146858,30.051836 
	C105.313400,29.915865 105.742767,29.892561 106.169243,29.927971 
	C111.348915,29.312809 116.102104,28.662237 120.933258,28.211159 
	C121.011215,28.410650 121.061836,28.836012 121.125183,29.077503 
	C121.347778,29.627850 121.586433,29.852266 122.075302,30.291464 
	C124.010025,32.858356 125.773949,35.126030 127.537872,37.393703 
	C127.537872,37.393703 127.584702,37.454800 127.624298,37.732132 
	C128.043015,38.462326 128.422134,38.915192 128.801239,39.368057 
	C128.996185,39.858913 129.191132,40.349770 129.693634,41.300545 
	C131.949356,44.904839 133.897507,48.049210 135.845673,51.193581 
	C135.845673,51.193581 135.895706,51.072670 135.895035,51.463036 
	C138.515091,55.990780 141.135834,60.128159 143.756561,64.265533 
	C143.756561,64.265533 143.762817,64.294525 143.747238,64.298325 
	C144.670761,65.635269 145.609879,66.968407 146.365509,68.788864 
	C147.107468,71.357262 148.032928,73.438324 148.968811,75.944199 
	C148.987381,87.943413 148.998169,99.517830 149.002853,111.092239 
	C149.006821,120.920341 148.922989,130.749817 149.089951,140.575073 
	C149.115295,142.066360 150.290939,143.538101 150.954254,145.386932 
	C150.940338,146.491348 150.906677,147.227722 150.495773,147.975372 
	C148.555023,147.828461 146.991547,147.670242 145.124924,147.481354 
	C145.476624,149.593948 145.766968,151.337997 146.033356,153.044128 
	C146.009415,153.006195 146.085037,153.054459 145.679977,153.039520 
	C142.343216,154.021011 139.340073,154.848373 136.495346,156.050583 
	C131.285019,158.252487 126.168221,160.675751 120.599991,163.005676 
	C118.007790,163.295395 115.828026,163.586151 114.260674,163.795212 
	C112.949142,161.468674 111.970612,159.732834 110.993668,157.603119 
	C110.995918,145.316177 111.143166,133.420502 110.931053,121.531235 
	C110.835152,116.155922 112.542885,110.480431 109.062866,105.484970 
	C105.432579,100.273788 101.763664,95.089523 98.063881,89.496735 
	C97.325752,86.478165 96.601570,83.864624 95.957741,81.231445 
	C95.575165,79.666702 95.254936,78.080193 95.027519,76.486229 
	C94.860802,75.317680 95.238968,73.912460 94.701820,73.015358 
	C94.380157,72.478142 92.759354,72.596855 91.730568,72.635651 
	C90.426994,72.684814 89.131638,72.952194 87.838074,73.106873 
	C87.843414,73.088272 87.827950,73.131866 87.908173,72.776688 
	C88.118362,71.319733 88.737396,69.946564 88.300552,69.159294 
	C84.940056,63.103191 81.374695,57.160767 77.329300,50.255104 
	C81.142731,47.865131 84.664734,45.657806 88.769157,43.085468 
	C88.769157,42.671577 88.769157,41.201115 88.769157,39.730648 
	C88.769157,39.730648 88.889870,39.814011 89.089081,39.774708 
	C89.512703,39.461552 89.737114,39.187698 89.961517,38.913841 
	C89.961517,38.913841 89.978935,38.994305 90.364967,38.992149 
	C93.756378,38.179661 98.385956,39.713783 97.981186,33.981049 
	C97.981186,33.981049 98.000000,33.999847 98.193451,33.928574 
	C98.649834,33.723091 98.847359,33.524002 98.979492,33.260033 
z"/>
<path fill="#0F54A8" opacity="1.000000" stroke="none" 
	d="
M129.461227,15.112026 
	C130.224289,16.855331 130.607254,18.550701 130.996445,20.625788 
	C128.164307,20.598297 126.229340,21.147396 127.373116,24.646618 
	C127.933655,26.361488 129.078873,27.988113 129.204056,29.709604 
	C129.302658,31.065754 128.244598,32.506004 127.188675,33.615562 
	C124.770744,29.894728 122.864441,26.467236 120.958138,23.039743 
	C121.238487,22.152771 121.288971,21.070330 121.844345,20.417227 
	C123.242882,18.772581 124.788544,17.225136 126.444550,15.841345 
	C127.089539,15.302377 128.188812,15.307052 129.461227,15.112026 
z"/>
<path fill="#38669A" opacity="1.000000" stroke="none" 
	d="
M120.626251,22.883850 
	C122.864441,26.467236 124.770744,29.894728 126.826721,33.648266 
	C127.199959,34.880981 127.423531,35.787655 127.592484,37.044014 
	C125.773949,35.126030 124.010025,32.858356 122.088928,30.018436 
	C121.641777,29.242798 121.351807,29.039404 121.061836,28.836010 
	C121.061836,28.836012 121.011215,28.410650 120.938950,27.872673 
	C118.644661,22.284323 115.213600,24.768732 112.007599,25.597752 
	C112.033684,24.866014 112.049988,24.448103 112.310715,23.840088 
	C113.043106,22.786427 113.531082,21.922867 114.019058,21.059307 
	C114.019058,21.059305 114.472633,21.068531 114.828949,21.270643 
	C115.398521,21.736675 115.668137,21.915749 115.994110,22.009975 
	C117.427528,22.249302 118.860947,22.488630 120.626251,22.883850 
z"/>
<path fill="#1B4C91" opacity="1.000000" stroke="none" 
	d="
M143.831940,63.846458 
	C141.135834,60.128159 138.515091,55.990780 135.840851,51.499695 
	C140.173920,54.129078 144.497574,57.153782 143.831940,63.846458 
z"/>
<path fill="#1B4C91" opacity="1.000000" stroke="none" 
	d="
M135.891281,50.789886 
	C133.897507,48.049210 131.949356,44.904839 129.937195,41.413689 
	C132.291107,40.791084 134.016663,41.055496 134.145279,44.258926 
	C134.228119,46.321999 135.305344,48.345146 135.891281,50.789886 
z"/>
<path fill="#38669A" opacity="1.000000" stroke="none" 
	d="
M128.836594,39.013451 
	C128.422134,38.915192 128.043015,38.462326 127.588898,37.716278 
	C127.966583,37.835011 128.419266,38.246929 128.836594,39.013451 
z"/>
<path fill="#184691" opacity="1.000000" stroke="none" 
	d="
M159.652161,66.052269 
	C159.996948,66.000343 160.442581,66.040718 160.661911,66.082397 
	C160.920319,67.154518 160.959381,68.184967 160.669647,69.787216 
	C159.894302,72.571968 159.447769,74.784912 158.995270,77.382339 
	C157.994354,80.127052 156.166000,82.476852 156.136276,84.849167 
	C155.899292,103.771278 155.951584,122.698143 156.130692,141.621506 
	C156.141434,142.756622 158.000015,143.874237 159.332764,145.150604 
	C160.445694,146.593704 161.198242,147.903122 162.012115,149.173233 
	C162.632751,150.141754 163.331177,151.060410 163.994980,152.001251 
	C163.992355,152.747757 163.989746,153.494278 163.978317,154.613586 
	C159.262390,153.747208 159.012421,157.263611 158.149139,160.649841 
	C157.549149,161.005173 157.106750,161.004456 156.332214,160.573700 
	C155.548859,157.267929 157.658524,152.957962 152.157974,152.681213 
	C156.559326,148.844955 153.961273,144.354385 153.971817,140.272949 
	C154.026260,119.182640 153.993622,98.092125 153.991364,77.001678 
	C157.416946,77.250771 157.473785,74.745148 156.852600,72.736832 
	C155.901581,69.662163 156.890182,67.722557 159.652161,66.052269 
z"/>
<path fill="#20458B" opacity="1.000000" stroke="none" 
	d="
M153.665833,76.751015 
	C153.993622,98.092125 154.026260,119.182640 153.971817,140.272949 
	C153.961273,144.354385 156.559326,148.844955 151.801437,152.720734 
	C149.523346,153.719864 147.760986,154.361313 145.994766,154.727051 
	C145.980118,154.267883 145.969345,154.084442 145.988525,153.689117 
	C146.018509,153.477234 146.085037,153.054459 146.085037,153.054459 
	C146.085037,153.054459 146.009415,153.006195 146.350906,152.918701 
	C148.143341,151.905777 149.594284,150.980347 151.383362,149.788605 
	C151.817886,126.378136 151.922668,103.233971 151.972717,80.089699 
	C151.974319,79.347908 151.414917,78.604912 151.013031,77.578300 
	C150.534805,76.823112 150.160599,76.352104 149.786392,75.881096 
	C150.971024,76.087517 152.155670,76.293930 153.665833,76.751015 
z"/>
<path fill="#EFF8FB" opacity="1.000000" stroke="none" 
	d="
M149.687454,75.863945 
	C150.160599,76.352104 150.534805,76.823112 150.966339,78.052979 
	C150.993958,100.880852 150.964233,122.949860 150.934509,145.018875 
	C150.290939,143.538101 149.115295,142.066360 149.089951,140.575073 
	C148.922989,130.749817 149.006821,120.920341 149.002853,111.092239 
	C148.998169,99.517830 148.987381,87.943413 149.086319,76.007652 
	C149.193390,75.646301 149.455963,75.695892 149.455963,75.695892 
	C149.455963,75.695892 149.588516,75.846794 149.687454,75.863945 
z"/>
<path fill="#20458B" opacity="1.000000" stroke="none" 
	d="
M149.691406,75.339157 
	C149.455963,75.695892 149.193390,75.646301 149.075897,75.582840 
	C148.032928,73.438324 147.107468,71.357262 146.451004,69.092812 
	C150.952942,69.263008 151.109711,71.769020 149.691406,75.339157 
z"/>
<path fill="#0672B8" opacity="1.000000" stroke="none" 
	d="
M63.257652,57.209213 
	C58.578159,52.037876 59.518280,46.639431 61.624603,40.717564 
	C61.519989,40.293880 61.556061,40.319145 61.832466,40.429665 
	C62.193825,40.446865 62.353298,40.349812 62.348843,40.260975 
	C62.338299,40.050613 62.249912,39.844162 62.192993,39.636127 
	C62.192993,39.636127 62.287144,39.433254 62.683014,39.463570 
	C63.324760,38.928616 63.570644,38.363338 63.816528,37.798061 
	C63.816525,37.798061 63.999184,37.967529 64.302460,37.953999 
	C68.118492,37.784756 71.269142,37.113335 71.883751,32.830135 
	C71.883751,32.830135 71.993881,32.923267 72.338531,32.954666 
	C73.786789,32.989250 74.890404,32.992435 75.996490,33.401253 
	C77.627724,37.654057 76.103752,40.883160 73.739426,44.183121 
	C71.676117,48.047913 69.877747,51.501919 74.188416,55.062790 
	C75.518631,56.161633 75.434654,58.972443 75.998199,60.999390 
	C74.197479,62.908550 72.396767,64.817719 70.423248,66.910088 
	C68.489983,64.239273 66.015038,60.820122 63.257652,57.209213 
z"/>
<path fill="#1268B0" opacity="1.000000" stroke="none" 
	d="
M83.974899,90.014832 
	C83.948029,88.278839 84.483627,86.251419 83.768845,84.871849 
	C82.549034,82.517570 80.544563,80.569839 78.710434,78.249863 
	C83.570854,74.797577 85.258659,80.122871 88.981407,81.120911 
	C90.095001,83.545654 90.546432,85.773636 90.999374,88.400467 
	C91.334221,90.866165 91.667572,92.933014 91.838409,95.323792 
	C89.686592,96.515236 87.697281,97.382751 85.703445,98.164658 
	C85.698921,98.079048 85.743050,98.244431 85.824875,97.841827 
	C85.262772,94.964424 84.618835,92.489632 83.974899,90.014832 
z"/>
<path fill="#EFF8FB" opacity="1.000000" stroke="none" 
	d="
M88.422249,39.766762 
	C88.769157,41.201115 88.769157,42.671577 88.769157,43.085468 
	C84.664734,45.657806 81.142731,47.865131 77.329300,50.255104 
	C81.374695,57.160767 84.940056,63.103191 88.300552,69.159294 
	C88.737396,69.946564 88.118362,71.319733 87.649864,72.604774 
	C86.584518,71.804710 85.857712,70.821373 85.130905,69.838043 
	C85.130905,69.838043 85.069801,69.952309 85.064285,69.579041 
	C83.752678,67.385185 82.446602,65.564606 81.140518,63.744030 
	C81.140518,63.744030 81.124146,63.348324 81.055084,62.815006 
	C80.094841,60.706543 79.221893,59.120747 78.309433,57.558025 
	C73.267136,48.922302 73.263840,48.924225 81.214912,43.224884 
	C83.501717,42.084213 85.788528,40.943542 88.422249,39.766762 
z"/>
<path fill="#EDF7FA" opacity="1.000000" stroke="none" 
	d="
M71.776459,74.213127 
	C73.025414,76.281479 74.274368,78.349831 75.688126,81.070312 
	C79.149635,87.229767 82.446342,92.737099 85.743050,98.244431 
	C85.743050,98.244431 85.698921,98.079048 85.764648,98.498085 
	C86.611115,100.547684 87.391846,102.178246 87.833023,103.826614 
	C85.470375,102.479683 82.881477,101.517754 81.556244,99.656212 
	C79.547180,96.834106 78.376717,93.404671 76.923447,90.199944 
	C75.296471,86.612167 73.714928,83.002617 72.184898,79.372505 
	C71.326241,77.335289 70.611740,75.237320 69.832275,73.166733 
	C69.832275,73.166733 69.999489,73.002457 70.083344,72.920502 
	C70.538750,73.230690 70.910309,73.622841 71.637299,74.014114 
	C71.992737,74.013229 71.776459,74.213127 71.776459,74.213127 
M83.479042,98.589928 
	C83.479042,98.589928 83.412804,98.478897 83.479042,98.589928 
z"/>
<path fill="#206AAA" opacity="1.000000" stroke="none" 
	d="
M81.132881,43.138889 
	C73.263840,48.924225 73.267136,48.922302 78.309433,57.558025 
	C79.221893,59.120747 80.094841,60.706543 80.965942,62.638187 
	C79.408829,62.539631 77.871811,62.084572 76.166496,61.314453 
	C75.434654,58.972443 75.518631,56.161633 74.188416,55.062790 
	C69.877747,51.501919 71.676117,48.047913 74.131287,44.177971 
	C76.818771,43.619217 78.852898,43.249947 80.887016,42.880676 
	C80.887016,42.880672 81.050850,43.052891 81.132881,43.138889 
z"/>
<path fill="#2869A4" opacity="1.000000" stroke="none" 
	d="
M85.088669,70.238777 
	C85.857712,70.821373 86.584518,71.804710 87.569641,72.959953 
	C87.827950,73.131866 87.843414,73.088272 87.889404,73.455376 
	C90.695198,78.796471 93.454994,83.770470 95.831413,88.819153 
	C93.964638,88.596436 92.481255,88.299019 90.997864,88.001610 
	C90.546432,85.773636 90.095001,83.545654 89.339706,81.152313 
	C87.706047,77.537804 86.376244,74.088661 85.088669,70.238777 
z"/>
<path fill="#2869A4" opacity="1.000000" stroke="none" 
	d="
M85.824875,97.841827 
	C82.446342,92.737099 79.149635,87.229767 75.868256,81.354813 
	C78.353401,83.960114 80.823219,86.933037 83.633972,89.960396 
	C84.618835,92.489632 85.262772,94.964424 85.824875,97.841827 
z"/>
<path fill="#0672B8" opacity="1.000000" stroke="none" 
	d="
M71.892143,74.120583 
	C71.988747,72.656143 72.185951,71.084343 72.410583,69.293930 
	C75.751350,71.914680 75.747704,72.002823 72.172134,74.138794 
	C71.776459,74.213127 71.992737,74.013229 71.892143,74.120583 
z"/>
<path fill="#2869A4" opacity="1.000000" stroke="none" 
	d="
M81.129578,64.116966 
	C82.446602,65.564606 83.752678,67.385185 85.119019,69.544373 
	C83.825729,68.085289 82.472191,66.287598 81.129578,64.116966 
z"/>
<path fill="#D5F3FB" opacity="1.000000" stroke="none" 
	d="
M66.120483,65.575729 
	C65.136047,64.475609 64.091850,63.044163 63.094898,61.227287 
	C64.115005,62.309376 65.087868,63.776890 66.120483,65.575729 
z"/>
<path fill="#0E6CB5" opacity="1.000000" stroke="none" 
	d="
M80.964813,42.545341 
	C78.852898,43.249947 76.818771,43.619217 74.392784,43.993633 
	C76.103752,40.883160 77.627724,37.654057 76.297668,33.247330 
	C78.730240,31.146845 80.864128,29.605919 82.998009,28.064995 
	C82.998009,28.064995 83.380325,27.915979 83.584602,27.895369 
	C92.470711,33.391457 92.458435,33.532944 83.776909,39.589413 
	C82.753937,40.303066 81.948746,41.328892 80.964813,42.545341 
M80.044472,33.518703 
	C79.700684,34.808018 79.356903,36.097332 79.013115,37.386646 
	C79.466705,37.728725 79.920296,38.070805 80.373886,38.412888 
	C82.373932,36.859428 84.373970,35.305969 86.374008,33.752510 
	C86.074814,33.176811 85.775620,32.601109 85.476425,32.025406 
	C83.850510,32.341801 82.224586,32.658192 80.044472,33.518703 
z"/>
<path fill="#1B60A5" opacity="1.000000" stroke="none" 
	d="
M113.861923,20.739100 
	C113.531082,21.922867 113.043106,22.786427 111.938797,23.832594 
	C109.553383,24.679329 107.784294,25.343456 106.015205,26.007587 
	C103.884132,24.096331 101.753059,22.185070 99.308952,20.132545 
	C101.047188,18.481108 102.938911,16.639845 105.194206,15.553116 
	C107.487778,14.447944 109.925278,14.350301 111.132759,17.623917 
	C111.537933,18.722357 112.822289,19.496511 113.861923,20.739100 
z"/>
<path fill="#1A5B9C" opacity="1.000000" stroke="none" 
	d="
M105.858765,26.313913 
	C107.784294,25.343456 109.553383,24.679329 111.694382,24.022696 
	C112.049988,24.448103 112.033684,24.866014 111.665932,25.682095 
	C109.457245,27.351025 107.600006,28.621792 105.742767,29.892559 
	C105.742767,29.892561 105.313400,29.915865 104.889618,30.051479 
	C104.241119,30.431913 104.016411,30.676733 103.791710,30.921551 
	C103.791710,30.921553 103.341751,30.964750 102.849487,31.079502 
	C101.631721,31.590858 100.906227,31.987463 100.180725,32.384064 
	C99.938766,31.604025 99.696808,30.823986 99.947021,29.912996 
	C100.714447,29.581511 100.903458,29.318895 101.006233,28.994202 
	C102.571602,28.202883 104.136971,27.411562 105.858765,26.313913 
z"/>
<path fill="#EFF8FB" opacity="1.000000" stroke="none" 
	d="
M97.664703,34.105469 
	C98.385956,39.713783 93.756378,38.179661 90.334274,38.964714 
	C92.394447,37.369587 94.871338,35.799736 97.664703,34.105469 
z"/>
<path fill="#EFF8FB" opacity="1.000000" stroke="none" 
	d="
M100.184601,32.552460 
	C100.906227,31.987463 101.631721,31.590858 102.686958,31.236561 
	C102.282646,31.865747 101.548592,32.452629 100.492393,33.048378 
	C100.170250,33.057243 100.188469,32.720856 100.184601,32.552460 
z"/>
<path fill="#EFF8FB" opacity="1.000000" stroke="none" 
	d="
M89.685501,38.942131 
	C89.737114,39.187698 89.512703,39.461552 89.015900,39.769783 
	C88.965492,39.526249 89.187477,39.248333 89.685501,38.942131 
z"/>
<path fill="#EFF8FB" opacity="1.000000" stroke="none" 
	d="
M98.729324,33.206814 
	C98.847359,33.524002 98.649834,33.723091 98.183273,33.920410 
	C98.146149,33.706886 98.312660,33.430241 98.729324,33.206814 
z"/>
<path fill="#1B60A5" opacity="1.000000" stroke="none" 
	d="
M97.532951,28.552187 
	C97.476341,28.586296 97.589561,28.518078 97.532951,28.552187 
z"/>
<path fill="#1B60A5" opacity="1.000000" stroke="none" 
	d="
M101.003204,28.997078 
	C100.903458,29.318895 100.714447,29.581511 100.217377,29.888290 
	C99.995552,29.994532 100.001251,29.497562 100.253082,29.248234 
	C100.504913,28.998907 101.004829,28.995703 101.004829,28.995703 
	C101.004829,28.995703 101.000175,28.999958 101.003204,28.997078 
z"/>
<path fill="#1A5B9C" opacity="1.000000" stroke="none" 
	d="
M100.916824,28.826565 
	C101.004829,28.995703 100.504913,28.998907 100.255020,28.999741 
	C100.279694,28.886192 100.554253,28.771811 100.916824,28.826565 
z"/>
<path fill="#EFF8FB" opacity="1.000000" stroke="none" 
	d="
M102.989944,178.971344 
	C100.290962,178.609741 97.591980,178.248154 94.352859,177.586075 
	C92.628090,176.469620 91.443459,175.653656 90.214615,174.489532 
	C88.452080,173.021927 86.733742,171.902481 85.015404,170.783051 
	C84.866821,170.485825 84.627106,170.320938 83.898392,170.018692 
	C80.714645,168.440948 77.928772,167.132904 74.936874,165.526520 
	C70.890266,163.112946 67.049660,160.997696 63.123337,158.542618 
	C59.567379,155.994400 55.983479,153.939514 52.686382,151.497391 
	C51.473984,150.599380 50.220390,148.794281 50.205006,147.389572 
	C50.020885,130.582291 50.005123,113.771858 50.176174,96.964600 
	C50.188942,95.709846 51.969498,94.473083 52.933559,93.175095 
	C52.938858,93.122231 52.837059,93.152687 53.038811,93.419014 
	C54.189659,94.774254 55.138760,95.863174 55.677956,96.968178 
	C51.131832,96.670326 52.135971,99.696297 52.010338,102.460342 
	C52.003567,114.731537 52.586250,126.571823 51.817108,138.323624 
	C51.182705,148.016739 58.824154,153.151810 64.986099,155.920624 
	C70.909218,158.582123 76.673775,161.623337 82.375931,164.739380 
	C85.618805,166.511505 89.045769,168.326080 91.589462,170.909592 
	C95.423607,174.803741 99.355911,177.679764 104.941315,177.322601 
	C104.197868,178.043411 103.593910,178.507385 102.989944,178.971344 
z"/>
<path fill="#0674BB" opacity="1.000000" stroke="none" 
	d="
M63.209057,158.882462 
	C67.049660,160.997696 70.890266,163.112946 74.891045,165.814178 
	C75.042709,166.594406 75.034195,166.788651 75.025681,166.982895 
	C72.208649,169.179367 69.391617,171.375824 66.574692,173.568115 
	C63.994789,172.694733 61.414783,171.825500 58.450974,170.929565 
	C57.929802,170.616257 57.730648,170.382248 57.261860,170.098175 
	C56.825695,167.850998 56.597374,165.706482 56.339211,163.096375 
	C55.210178,162.084213 54.110989,161.537659 52.899849,160.795074 
	C52.420425,160.504852 52.052952,160.410660 51.685482,160.316452 
	C51.788433,160.544937 51.891384,160.773438 51.791313,161.234299 
	C51.351292,160.353760 51.162846,159.227417 50.860275,158.132614 
	C50.657360,157.398407 50.292633,156.708893 50.000237,155.749237 
	C49.999653,155.332321 49.999138,155.165543 49.998646,154.664612 
	C49.997280,153.884857 49.995899,153.439301 50.309383,153.149796 
	C54.819183,155.164734 59.014122,157.023590 63.209057,158.882462 
z"/>
<path fill="#1369B4" opacity="1.000000" stroke="none" 
	d="
M90.258820,174.837677 
	C91.443459,175.653656 92.628090,176.469620 93.942642,177.574799 
	C92.069473,178.969513 90.066376,180.075012 87.208061,181.652496 
	C90.158318,183.099411 92.074539,184.039185 95.315331,185.628571 
	C91.023796,187.449615 88.438416,187.681488 86.061920,184.376160 
	C85.774162,180.708008 85.553253,177.406799 86.037003,174.087830 
	C87.914047,174.325943 89.086433,174.581818 90.258820,174.837677 
z"/>
<path fill="#2A6CA2" opacity="1.000000" stroke="none" 
	d="
M75.337479,167.142670 
	C75.034195,166.788651 75.042709,166.594406 75.097061,166.112518 
	C77.928772,167.132904 80.714645,168.440948 83.672737,170.040039 
	C81.113060,169.321518 78.381172,168.311981 75.337479,167.142670 
z"/>
<path fill="#2A6CA2" opacity="1.000000" stroke="none" 
	d="
M90.214615,174.489532 
	C89.086433,174.581818 87.914047,174.325943 86.377991,174.030228 
	C85.686821,173.149689 85.359322,172.308990 85.023605,171.125671 
	C86.733742,171.902481 88.452080,173.021927 90.214615,174.489532 
z"/>
<path fill="#145CA4" opacity="1.000000" stroke="none" 
	d="
M118.010468,184.028824 
	C118.047127,184.520920 118.083786,185.013016 118.214630,185.864258 
	C118.308815,186.223404 118.258873,186.202148 117.972748,186.217789 
	C117.456757,186.493362 117.226883,186.753296 116.997009,187.013229 
	C116.997017,187.013229 117.000633,186.995605 116.697571,187.016754 
	C115.949211,187.413925 115.503914,187.789948 115.058624,188.165955 
	C114.577042,188.416748 114.095467,188.667542 113.094116,188.705078 
	C111.385864,188.352844 110.197395,188.213882 109.008919,188.074921 
	C107.495102,187.619888 105.981361,187.164581 104.467445,186.709885 
	C103.354843,186.375732 102.241997,186.042343 101.393768,185.210205 
	C104.909882,183.746185 108.161491,182.780609 113.280052,181.260605 
	C110.806229,179.563629 108.795044,178.183990 106.799805,176.813660 
	C106.815765,176.822983 106.823570,176.858124 107.162079,176.876404 
	C107.938347,176.472733 108.376106,176.050766 108.838806,175.712921 
	C108.863739,175.797058 108.689735,175.774216 108.967339,175.756454 
	C109.490295,175.477585 109.735649,175.216476 109.985832,174.980408 
	C109.990654,175.005447 109.953255,174.970627 110.372803,174.982239 
	C112.189240,174.978287 113.586128,174.962723 114.987099,175.209290 
	C114.992279,175.646179 114.993378,175.820953 114.856720,176.051697 
	C114.814102,176.073624 114.909248,176.039581 115.394539,176.012466 
	C117.712067,176.510986 119.639450,177.002563 121.566833,177.494156 
	C118.186485,178.854462 115.483604,179.966156 118.010468,184.028824 
z"/>
<path fill="#1D60AA" opacity="1.000000" stroke="none" 
	d="
M106.783844,176.804367 
	C108.795044,178.183990 110.806229,179.563629 113.280052,181.260605 
	C108.161491,182.780609 104.909882,183.746185 101.328552,184.853760 
	C101.579918,183.188904 102.161003,181.382095 102.866013,179.273315 
	C103.593910,178.507385 104.197868,178.043411 104.921799,177.309326 
	C105.041771,177.039200 105.052063,177.082962 105.344360,177.057526 
	C106.019051,176.956192 106.401443,176.880280 106.783844,176.804367 
z"/>
<path fill="#2D5E92" opacity="1.000000" stroke="none" 
	d="
M108.980911,188.385956 
	C110.197395,188.213882 111.385864,188.352844 112.815079,188.761688 
	C111.618881,189.719635 110.181946,190.407684 108.385750,191.055389 
	C108.335289,190.242371 108.644089,189.469681 108.980911,188.385956 
z"/>
<path fill="#0D5CAC" opacity="1.000000" stroke="none" 
	d="
M118.198898,15.124186 
	C116.575310,15.827791 115.331581,16.449291 114.097031,17.066210 
	C111.424973,11.915019 113.101036,9.911442 122.674919,11.730992 
	C120.853134,13.203620 119.715950,14.122849 118.198898,15.124186 
z"/>
<path fill="#1B60A5" opacity="1.000000" stroke="none" 
	d="
M115.881775,21.785881 
	C115.668137,21.915749 115.398521,21.736675 115.055687,21.263874 
	C115.207214,21.223923 115.488327,21.392855 115.881775,21.785881 
z"/>
<path fill="#20458B" opacity="1.000000" stroke="none" 
	d="
M163.998535,151.555725 
	C163.331177,151.060410 162.632751,150.141754 162.012115,149.173233 
	C161.198242,147.903122 160.445694,146.593704 159.333450,144.681946 
	C159.000137,124.607796 159.000137,105.152908 159.000137,85.698029 
	C159.557983,85.698486 160.115829,85.698952 160.673676,85.699409 
	C160.917618,88.599228 161.161575,91.499046 161.405518,94.398865 
	C161.937012,94.371620 162.468506,94.344376 163.000000,94.317123 
	C163.000000,91.929932 162.881271,89.535454 163.027374,87.157234 
	C163.256149,83.433250 163.663940,79.720261 163.995911,76.002617 
	C164.328873,77.721710 164.945282,79.439781 164.951462,81.160042 
	C165.021652,100.709557 165.050491,120.259651 164.955292,139.808945 
	C164.936951,143.577484 164.334900,147.343201 163.998535,151.555725 
z"/>
<path fill="#16488F" opacity="1.000000" stroke="none" 
	d="
M163.994781,75.664352 
	C163.663940,79.720261 163.256149,83.433250 163.027374,87.157234 
	C162.881271,89.535454 163.000000,91.929932 163.000000,94.317123 
	C162.468506,94.344376 161.937012,94.371620 161.405518,94.398865 
	C161.161575,91.499046 160.917618,88.599228 160.673676,85.699409 
	C160.115829,85.698952 159.557983,85.698486 159.000137,85.698029 
	C159.000137,105.152908 159.000137,124.607796 158.999451,144.531342 
	C158.000015,143.874237 156.141434,142.756622 156.130692,141.621506 
	C155.951584,122.698143 155.899292,103.771278 156.136276,84.849167 
	C156.166000,82.476852 157.994354,80.127052 159.328033,77.334183 
	C160.778839,75.599968 161.890945,74.298386 163.003052,72.996803 
	C163.333252,73.773232 163.663452,74.549660 163.994781,75.664352 
z"/>
<path fill="#20458B" opacity="1.000000" stroke="none" 
	d="
M163.001251,72.630440 
	C161.890945,74.298386 160.778839,75.599968 159.333984,76.949707 
	C159.447769,74.784912 159.894302,72.571968 160.672272,70.175354 
	C161.432190,70.003395 161.860703,70.015099 162.609497,70.048271 
	C162.953018,70.801186 162.976227,71.532631 163.001251,72.630440 
z"/>
<path fill="#1080C5" opacity="1.000000" stroke="none" 
	d="
M38.985291,154.002136 
	C38.326641,150.791031 37.139553,147.586578 37.099121,144.367706 
	C36.904766,128.896378 37.020073,113.421158 37.425976,97.486969 
	C38.884193,99.129852 40.814274,101.215225 40.857719,103.339195 
	C41.135895,116.938576 40.932911,130.547180 41.087879,144.150482 
	C41.106384,145.774857 42.332047,147.385452 42.998657,149.402115 
	C42.999680,150.867859 43.000214,151.933929 42.654465,153.032349 
	C41.200554,153.377182 40.092922,153.689667 38.985291,154.002136 
z"/>
<path fill="#157EC1" opacity="1.000000" stroke="none" 
	d="
M42.998169,149.002441 
	C42.332047,147.385452 41.106384,145.774857 41.087879,144.150482 
	C40.932911,130.547180 41.135895,116.938576 40.857719,103.339195 
	C40.814274,101.215225 38.884193,99.129852 37.437347,97.019196 
	C37.034245,94.390694 37.275425,91.737816 36.953407,89.155151 
	C36.276901,83.729393 37.209167,79.520210 44.035519,78.290527 
	C44.687077,78.013298 44.859020,78.019844 45.030964,78.026398 
	C45.544628,80.149338 46.058292,82.272270 46.418129,84.736343 
	C43.973728,86.008728 41.383240,86.486557 42.464706,90.198654 
	C43.096390,92.366882 42.975014,94.790245 42.980667,97.099350 
	C43.019714,113.065750 43.003044,129.032288 43.002922,145.399124 
	C43.000439,146.867126 42.999302,147.934784 42.998169,149.002441 
z"/>
<path fill="#0D7DC4" opacity="1.000000" stroke="none" 
	d="
M39.024895,154.381882 
	C40.092922,153.689667 41.200554,153.377182 42.807564,153.335159 
	C45.538063,154.403534 47.769184,155.201462 50.000305,155.999390 
	C50.292633,156.708893 50.657360,157.398407 50.860275,158.132614 
	C51.162846,159.227417 51.351292,160.353760 52.045719,161.231918 
	C52.672695,160.995132 52.842251,160.993118 53.011803,160.991104 
	C54.110989,161.537659 55.210178,162.084213 56.145081,162.822998 
	C52.007744,166.279266 48.745277,163.430786 45.316795,161.808014 
	C43.879356,161.127655 42.370365,160.598465 40.515892,159.995697 
	C39.780087,158.247787 39.422295,156.504700 39.024895,154.381882 
z"/>
<path fill="#0C7ABE" opacity="1.000000" stroke="none" 
	d="
M45.420433,78.022285 
	C44.859020,78.019844 44.687077,78.013298 44.257034,78.003983 
	C45.203938,76.516716 46.408939,75.032219 47.824482,73.294426 
	C48.339561,72.936729 48.602604,72.767738 48.977974,72.355698 
	C50.545769,72.177223 51.959736,72.177223 54.069832,72.177223 
	C52.460468,76.572212 49.307369,77.532196 45.420433,78.022285 
z"/>
<path fill="#FEFEFD" opacity="1.000000" stroke="none" 
	d="
M105.061295,177.052490 
	C99.355911,177.679764 95.423607,174.803741 91.589462,170.909592 
	C89.045769,168.326080 85.618805,166.511505 82.375931,164.739380 
	C76.673775,161.623337 70.909218,158.582123 64.986099,155.920624 
	C58.824154,153.151810 51.182705,148.016739 51.817108,138.323624 
	C52.586250,126.571823 52.003567,114.731537 52.418991,102.463089 
	C54.555752,102.665237 56.279327,103.333832 57.634270,104.048508 
	C56.597656,105.343987 55.929676,106.593361 55.261692,107.842735 
	C55.916672,108.188889 56.571655,108.535042 57.226639,108.881195 
	C57.816471,107.586670 58.406307,106.292145 59.359089,105.036026 
	C62.625244,105.779114 65.480499,106.328529 67.388031,102.962906 
	C70.753296,103.724815 73.807419,104.326385 77.168922,104.919037 
	C77.613762,104.261269 77.751228,103.612419 77.952950,102.720291 
	C78.052353,102.312996 78.087494,102.148979 78.408943,101.819763 
	C80.015694,97.587654 78.882538,96.559151 72.763748,96.283203 
	C72.773323,96.304237 72.727585,96.297180 72.825966,95.957077 
	C72.659485,93.882881 72.394623,92.148796 72.354919,91.888863 
	C69.112648,91.160500 67.183197,90.816353 65.307777,90.282394 
	C63.127235,89.661575 60.994041,88.874451 58.840298,88.159500 
	C58.840298,88.159500 58.970509,88.168236 58.957253,87.779221 
	C58.963432,86.594231 58.982861,85.798248 59.343510,84.993591 
	C60.293789,84.662178 60.902847,84.339439 61.511906,84.016701 
	C61.216568,83.736885 60.921227,83.457069 60.625889,83.177254 
	C60.083218,83.784081 59.540546,84.390900 58.517120,85.001740 
	C56.764442,85.201408 55.492516,85.397057 54.220589,85.592712 
	C54.220589,85.592712 54.029877,85.528191 54.014961,85.088600 
	C54.820423,83.352737 55.640800,82.056458 56.478874,80.732231 
	C55.585415,79.459396 54.686367,78.178596 53.787323,76.897804 
	C54.667778,76.325020 55.548237,75.752243 57.040428,75.099274 
	C58.090553,74.666229 58.528954,74.313370 58.967354,73.960510 
	C58.967354,73.960518 58.986694,73.977280 58.975628,73.963890 
	C59.776695,73.719452 60.588833,73.488411 61.696198,73.122307 
	C64.361397,73.009094 66.731377,73.030945 69.466820,73.109764 
	C70.611740,75.237320 71.326241,77.335289 72.184898,79.372505 
	C73.714928,83.002617 75.296471,86.612167 76.923447,90.199944 
	C78.376717,93.404671 79.547180,96.834106 81.556244,99.656212 
	C82.881477,101.517754 85.470375,102.479683 87.817352,103.832443 
	C88.141235,103.820465 88.150276,103.832054 88.101913,104.225250 
	C90.340965,110.969810 92.587776,117.175423 92.147606,124.267189 
	C91.562607,133.692474 91.912445,143.182907 92.079887,152.641449 
	C92.111565,154.430588 93.166687,156.201599 93.833496,158.238953 
	C93.940880,158.676254 93.964340,158.855576 94.008904,159.342407 
	C94.422577,160.067108 94.815132,160.484268 95.174133,160.905365 
	C95.140587,160.909286 95.193298,160.863373 95.107208,161.222870 
	C94.216522,163.887817 93.397247,166.553772 97.029907,166.728058 
	C105.556717,167.137177 107.858604,165.536789 110.992081,157.997009 
	C111.970612,159.732834 112.949142,161.468674 114.260674,163.795212 
	C115.828026,163.586151 118.007790,163.295395 120.535645,163.352081 
	C118.924248,165.135941 116.964737,166.572372 114.817505,167.765900 
	C113.753571,168.349686 112.877357,169.176376 111.946892,170.353119 
	C110.304947,171.753281 108.593773,172.662140 107.173561,173.903809 
	C106.247650,174.713318 105.744560,176.006470 105.052063,177.082962 
	C105.052063,177.082962 105.041771,177.039200 105.061295,177.052490 
z"/>
<path fill="#0D7DC4" opacity="1.000000" stroke="none" 
	d="
M43.004272,144.998779 
	C43.003044,129.032288 43.019714,113.065750 42.980667,97.099350 
	C42.975014,94.790245 43.096390,92.366882 42.464706,90.198654 
	C41.383240,86.486557 43.973728,86.008728 46.631294,85.037537 
	C50.770321,86.554924 54.542351,88.112259 58.548141,90.094513 
	C56.800289,91.397186 54.818672,92.274933 52.837059,93.152687 
	C52.837059,93.152687 52.938858,93.122231 52.800125,92.861099 
	C51.688873,91.845352 50.716354,91.090744 48.937298,89.710297 
	C48.546318,92.616791 48.040199,94.664337 48.031837,96.713913 
	C47.967548,112.475586 47.897430,128.238922 48.092117,143.998489 
	C48.129250,147.004288 49.330406,149.995682 49.994514,152.993729 
	C49.995899,153.439301 49.997280,153.884857 49.621216,154.615982 
	C48.493137,153.429108 47.854172,151.884872 46.964733,150.501709 
	C45.744045,148.603439 44.333477,146.827271 43.004272,144.998779 
z"/>
<path fill="#1C74B0" opacity="1.000000" stroke="none" 
	d="
M53.038811,93.419014 
	C54.818672,92.274933 56.800289,91.397186 58.902397,90.249115 
	C59.243183,89.954361 59.463467,89.929932 60.287323,90.053513 
	C64.836456,92.233406 68.782021,94.265297 72.727585,96.297180 
	C72.727585,96.297180 72.773323,96.304237 72.952759,96.557327 
	C74.795677,98.535271 76.459152,100.260109 78.122627,101.984955 
	C78.087494,102.148979 78.052353,102.312996 77.670212,102.835602 
	C77.169327,103.772110 77.015434,104.350029 76.861542,104.927956 
	C73.807419,104.326385 70.753296,103.724815 67.205917,102.663055 
	C63.171066,100.452614 59.629463,98.702347 56.087860,96.952087 
	C55.138760,95.863174 54.189659,94.774254 53.038811,93.419014 
z"/>
<path fill="#EDF7FA" opacity="1.000000" stroke="none" 
	d="
M72.825966,95.957077 
	C68.782021,94.265297 64.836456,92.233406 60.614670,89.995468 
	C59.926006,89.413490 59.513554,89.037560 58.970703,88.410568 
	C60.994041,88.874451 63.127235,89.661575 65.307777,90.282394 
	C67.183197,90.816353 69.112648,91.160500 72.354919,91.888863 
	C72.394623,92.148796 72.659485,93.882881 72.825966,95.957077 
z"/>
<path fill="#EDF7FA" opacity="1.000000" stroke="none" 
	d="
M53.467354,77.027161 
	C54.686367,78.178596 55.585415,79.459396 56.478874,80.732231 
	C55.640800,82.056458 54.820423,83.352737 53.942562,85.018661 
	C51.756084,84.095184 49.627090,82.802055 46.593781,80.959656 
	C49.555058,79.241196 51.351219,78.198860 53.467354,77.027161 
z"/>
<path fill="#EDF7FA" opacity="1.000000" stroke="none" 
	d="
M54.402618,85.846291 
	C55.492516,85.397057 56.764442,85.201408 58.518185,85.002876 
	C59.000000,85.000000 59.002293,85.002274 59.002293,85.002274 
	C58.982861,85.798248 58.963432,86.594231 58.890652,87.786499 
	C58.659897,88.148361 58.482491,88.113922 57.949753,87.734505 
	C57.344563,87.206345 57.065834,87.096024 56.758247,87.058556 
	C56.033714,86.738998 55.309181,86.419434 54.402618,85.846291 
z"/>
<path fill="#D5F3FB" opacity="1.000000" stroke="none" 
	d="
M58.677193,73.982651 
	C58.528954,74.313370 58.090553,74.666229 57.350960,75.026245 
	C57.495522,74.690536 57.941277,74.347656 58.677193,73.982651 
z"/>
<path fill="#FEFEFD" opacity="1.000000" stroke="none" 
	d="
M56.902031,87.242798 
	C57.065834,87.096024 57.344563,87.206345 57.745125,87.556717 
	C57.560318,87.774452 57.276978,87.675491 56.902031,87.242798 
z"/>
<path fill="#2D75A5" opacity="1.000000" stroke="none" 
	d="
M82.693428,27.961681 
	C80.864128,29.605919 78.730240,31.146845 76.295181,32.841698 
	C74.890404,32.992435 73.786789,32.989250 72.271194,32.928844 
	C75.369095,31.200542 78.878967,29.529455 82.693428,27.961681 
z"/>
<path fill="#2D75A5" opacity="1.000000" stroke="none" 
	d="
M71.534172,32.869175 
	C71.269142,37.113335 68.118492,37.784756 64.203300,37.878746 
	C66.262115,36.180756 68.723351,34.544487 71.534172,32.869175 
z"/>
<path fill="#2D75A5" opacity="1.000000" stroke="none" 
	d="
M63.560616,37.883286 
	C63.570644,38.363338 63.324760,38.928616 62.751064,39.374832 
	C62.717064,38.826687 63.010883,38.397598 63.560616,37.883286 
z"/>
<path fill="#2D75A5" opacity="1.000000" stroke="none" 
	d="
M62.052147,39.703766 
	C62.249912,39.844162 62.338299,40.050613 62.348843,40.260975 
	C62.353298,40.349812 62.193825,40.446865 61.847145,40.415100 
	C61.629921,40.076828 61.738544,39.903961 62.052147,39.703766 
z"/>
<path fill="#10519C" opacity="1.000000" stroke="none" 
	d="
M141.998779,167.999557 
	C140.222076,169.208893 138.586548,171.046844 136.636597,171.484818 
	C133.466934,172.196732 132.475708,173.656357 133.286591,177.066742 
	C133.392654,177.507782 133.351395,177.478256 132.934357,177.322601 
	C131.679306,177.113342 130.841309,177.059738 129.946747,176.660706 
	C129.588898,173.199234 129.287613,170.083176 129.051727,166.610474 
	C133.604034,163.603287 138.071915,160.919342 142.599152,158.339554 
	C143.250824,157.968201 144.188309,158.098373 145.350708,157.998688 
	C146.608307,158.140854 147.508713,158.280762 149.112946,158.530029 
	C146.774582,161.004898 144.887497,163.002136 143.000412,164.999390 
	C142.679230,165.103470 142.418854,165.291672 141.811310,165.820557 
	C141.084137,166.484238 140.764908,166.891373 140.445694,167.298508 
	C140.963394,167.532181 141.481094,167.765869 141.998779,167.999557 
z"/>
<path fill="#154A99" opacity="1.000000" stroke="none" 
	d="
M143.331146,165.001770 
	C144.887497,163.002136 146.774582,161.004898 149.112946,158.530029 
	C147.508713,158.280762 146.608307,158.140854 145.226013,157.699768 
	C144.480682,156.584763 144.217255,155.770920 143.975433,154.975357 
	C143.997040,154.993652 143.956345,154.962250 144.296432,154.982376 
	C145.090561,155.002579 145.544586,155.002670 145.998627,155.002747 
	C147.760986,154.361313 149.523346,153.719864 151.642242,153.038910 
	C157.658524,152.957962 155.548859,157.267929 156.000336,160.574432 
	C154.856308,161.103912 153.712021,161.202637 152.567734,161.301346 
	C152.502335,160.830292 152.436951,160.359253 152.371567,159.888199 
	C152.087875,160.798935 151.804184,161.709686 150.898956,162.814148 
	C148.513245,163.674454 146.749069,164.341049 144.984909,165.007629 
	C144.543900,165.006470 144.102905,165.005310 143.331146,165.001770 
z"/>
<path fill="#10519C" opacity="1.000000" stroke="none" 
	d="
M145.024323,165.304047 
	C146.749069,164.341049 148.513245,163.674454 150.652222,163.015305 
	C149.039276,163.881973 147.051514,164.741211 145.024323,165.304047 
z"/>
<path fill="#154A99" opacity="1.000000" stroke="none" 
	d="
M142.000946,167.666412 
	C141.481094,167.765869 140.963394,167.532181 140.445694,167.298508 
	C140.764908,166.891373 141.084137,166.484238 141.701981,166.038864 
	C142.001434,166.444824 142.002274,166.889038 142.000946,167.666412 
z"/>
<path fill="#2D5E92" opacity="1.000000" stroke="none" 
	d="
M115.345352,188.121124 
	C115.503914,187.789948 115.949211,187.413925 116.706177,187.019958 
	C117.017853,187.002029 116.871063,187.366898 116.805969,187.552429 
	C116.371284,187.850739 116.001678,187.963531 115.345352,188.121124 
z"/>
<path fill="#0D56A2" opacity="1.000000" stroke="none" 
	d="
M128.986328,166.967133 
	C129.287613,170.083176 129.588898,173.199234 129.695190,176.828613 
	C128.990295,178.215714 128.480392,179.089462 127.970505,179.963226 
	C123.331276,177.666946 122.135101,183.367905 118.370850,183.984924 
	C115.483604,179.966156 118.186485,178.854462 121.566833,177.494156 
	C119.639450,177.002563 117.712067,176.510986 115.392342,176.009705 
	C115.000000,176.000000 114.994484,175.995728 114.994484,175.995728 
	C114.993378,175.820953 114.992279,175.646179 115.190170,174.947357 
	C119.921547,171.937912 124.453941,169.452530 128.986328,166.967133 
z"/>
<path fill="#21528D" opacity="1.000000" stroke="none" 
	d="
M128.257538,179.980042 
	C128.480392,179.089462 128.990295,178.215714 129.751740,177.174042 
	C130.841309,177.059738 131.679306,177.113342 132.911011,177.331635 
	C132.114059,178.296112 130.923401,179.095886 129.425140,179.970306 
	C128.926559,180.028900 128.735550,180.012863 128.257538,179.980042 
z"/>
<path fill="#2D5E92" opacity="1.000000" stroke="none" 
	d="
M117.264740,186.975555 
	C117.226883,186.753296 117.456757,186.493362 117.953156,186.199005 
	C117.990616,186.422348 117.761543,186.680115 117.264740,186.975555 
z"/>
<path fill="#EFF8FB" opacity="1.000000" stroke="none" 
	d="
M110.993668,157.603119 
	C107.858604,165.536789 105.556717,167.137177 97.029907,166.728058 
	C93.397247,166.553772 94.216522,163.887817 95.457275,161.336899 
	C98.817017,161.427872 102.294258,162.871735 104.498680,161.769653 
	C106.456802,160.790726 107.950226,157.010498 108.013672,154.426590 
	C108.348923,140.773422 108.328598,127.104042 108.033852,113.448875 
	C107.971924,110.580177 106.242012,107.747467 105.246552,104.529076 
	C102.727486,99.509010 100.242561,94.858047 97.846397,90.128983 
	C97.935165,90.050880 98.111641,89.893494 98.111633,89.893494 
	C101.763664,95.089523 105.432579,100.273788 109.062866,105.484970 
	C112.542885,110.480431 110.835152,116.155922 110.931053,121.531235 
	C111.143166,133.420502 110.995918,145.316177 110.993668,157.603119 
z"/>
<path fill="#EFF8FB" opacity="1.000000" stroke="none" 
	d="
M115.005234,168.008789 
	C116.964737,166.572372 118.924248,165.135941 120.948090,163.353119 
	C126.168221,160.675751 131.285019,158.252487 136.495346,156.050583 
	C139.340073,154.848373 142.343216,154.021011 145.679977,153.039520 
	C146.085037,153.054459 146.018509,153.477234 145.679153,153.750214 
	C144.878647,154.336197 144.417496,154.649216 143.956345,154.962250 
	C143.956345,154.962250 143.997040,154.993652 143.642578,155.075165 
	C132.176483,161.761337 121.064873,168.365982 109.953255,174.970627 
	C109.953255,174.970627 109.990654,175.005447 109.709656,175.012329 
	C109.182358,175.270874 108.936050,175.522552 108.689743,175.774231 
	C108.689735,175.774216 108.863739,175.797058 108.537064,175.772369 
	C107.748116,176.117828 107.285843,176.487976 106.823570,176.858124 
	C106.823570,176.858124 106.815765,176.822983 106.799805,176.813690 
	C106.401443,176.880280 106.019051,176.956192 105.344360,177.057526 
	C105.744560,176.006470 106.247650,174.713318 107.173561,173.903809 
	C108.593773,172.662140 110.304947,171.753281 112.267685,170.326752 
	C113.430237,169.303146 114.217735,168.655960 115.005234,168.008789 
z"/>
<path fill="#BED6F7" opacity="1.000000" stroke="none" 
	d="
M150.954254,145.386932 
	C150.964233,122.949860 150.993958,100.880852 151.070358,78.337158 
	C151.414917,78.604912 151.974319,79.347908 151.972717,80.089699 
	C151.922668,103.233971 151.817886,126.378136 151.353271,149.440582 
	C150.947693,148.893936 150.910355,148.429001 150.873032,147.964081 
	C150.906677,147.227722 150.940338,146.491348 150.954254,145.386932 
z"/>
<path fill="#EFF8FB" opacity="1.000000" stroke="none" 
	d="
M96.214798,88.744461 
	C93.454994,83.770470 90.695198,78.796471 87.884064,73.473976 
	C89.131638,72.952194 90.426994,72.684814 91.730568,72.635651 
	C92.759354,72.596855 94.380157,72.478142 94.701820,73.015358 
	C95.238968,73.912460 94.860802,75.317680 95.027519,76.486229 
	C95.254936,78.080193 95.575165,79.666702 95.957741,81.231445 
	C96.601570,83.864624 97.325752,86.478165 98.063889,89.496735 
	C98.111641,89.893494 97.935165,90.050880 97.621651,89.977203 
	C96.942810,89.527794 96.577484,89.152061 96.197510,88.771027 
	C96.182869,88.765717 96.214798,88.744461 96.214798,88.744461 
z"/>
<path fill="#EFF8FB" opacity="1.000000" stroke="none" 
	d="
M106.169243,29.927971 
	C107.600006,28.621792 109.457245,27.351025 111.656143,25.995918 
	C115.213600,24.768732 118.644661,22.284323 120.860992,27.673180 
	C116.102104,28.662237 111.348915,29.312809 106.169243,29.927971 
z"/>
<path fill="#EFF8FB" opacity="1.000000" stroke="none" 
	d="
M150.495773,147.975372 
	C150.910355,148.429001 150.947693,148.893936 151.015137,149.706879 
	C149.594284,150.980347 148.143341,151.905777 146.374847,152.956635 
	C145.766968,151.337997 145.476624,149.593948 145.124924,147.481354 
	C146.991547,147.670242 148.555023,147.828461 150.495773,147.975372 
z"/>
<path fill="#EFF8FB" opacity="1.000000" stroke="none" 
	d="
M104.035858,30.886415 
	C104.016411,30.676733 104.241119,30.431913 104.723068,30.187450 
	C104.839111,30.506327 104.605675,30.727486 104.035858,30.886415 
z"/>
<path fill="#EFF8FB" opacity="1.000000" stroke="none" 
	d="
M121.125183,29.077501 
	C121.351807,29.039404 121.641777,29.242798 121.918121,29.719219 
	C121.586433,29.852266 121.347778,29.627850 121.125183,29.077501 
z"/>
<path fill="#23538B" opacity="1.000000" stroke="none" 
	d="
M144.296432,154.982376 
	C144.417496,154.649216 144.878647,154.336197 145.649170,153.962082 
	C145.969345,154.084442 145.980118,154.267883 145.994766,154.727051 
	C145.544586,155.002670 145.090561,155.002579 144.296432,154.982376 
z"/>
<path fill="#1763B4" opacity="1.000000" stroke="none" 
	d="
M90.999374,88.400467 
	C92.481255,88.299019 93.964638,88.596436 95.831413,88.819153 
	C96.214798,88.744461 96.182869,88.765717 96.134132,89.188560 
	C96.408348,91.518661 96.404144,93.563477 97.134155,95.299568 
	C98.125214,97.656456 99.678162,99.777077 101.013252,102.297173 
	C101.358032,103.062660 101.679665,103.530006 102.000648,103.998672 
	C102.000000,104.000000 102.003220,103.998611 102.040131,104.354378 
	C103.310356,107.191086 104.543678,109.672028 106.002808,112.607224 
	C101.358330,113.328117 100.932869,116.243225 100.965630,119.709793 
	C101.070763,130.834991 101.067726,141.962708 100.913063,153.086777 
	C100.895149,154.375488 99.664711,155.647369 98.996429,156.927063 
	C97.956657,156.001343 96.901787,155.091766 95.885323,154.141113 
	C95.532280,153.810913 95.274345,153.379044 94.984375,152.557495 
	C95.020103,150.086517 95.044441,148.051636 95.487129,146.009552 
	C99.253815,146.263245 99.012810,143.950500 99.007133,141.739746 
	C98.985954,133.491577 98.995758,125.243324 98.994774,116.556305 
	C99.002495,107.555954 98.737122,107.136452 91.607109,105.033287 
	C90.730164,105.096375 90.230736,105.160812 89.725800,105.210587 
	C89.720291,105.195923 89.703011,105.231354 89.789703,104.819809 
	C90.842499,102.775681 91.794304,101.134384 92.779793,99.513580 
	C93.431938,98.441017 94.132408,97.397827 94.811241,96.341492 
	C93.874466,95.894287 92.937691,95.447075 92.000916,94.999863 
	C91.667572,92.933014 91.334221,90.866165 90.999374,88.400467 
z"/>
<path fill="#2869A4" opacity="1.000000" stroke="none" 
	d="
M91.838409,95.323792 
	C92.937691,95.447075 93.874466,95.894287 94.811241,96.341492 
	C94.132408,97.397827 93.431938,98.441017 92.779793,99.513580 
	C91.794304,101.134384 90.842499,102.775681 89.554581,104.686142 
	C88.871941,104.586693 88.511108,104.209373 88.150276,103.832054 
	C88.150276,103.832054 88.141235,103.820465 88.156906,103.814636 
	C87.391846,102.178246 86.611115,100.547684 85.769180,98.583694 
	C87.697281,97.382751 89.686592,96.515236 91.838409,95.323792 
z"/>
<path fill="#FEFEFD" opacity="1.000000" stroke="none" 
	d="
M83.445923,98.534409 
	C83.412804,98.478897 83.479042,98.589928 83.445923,98.534409 
z"/>
<path fill="#126AB0" opacity="1.000000" stroke="none" 
	d="
M80.321564,33.246643 
	C82.224586,32.658192 83.850510,32.341801 85.476425,32.025406 
	C85.775620,32.601109 86.074814,33.176811 86.374008,33.752510 
	C84.373970,35.305969 82.373932,36.859428 80.373886,38.412888 
	C79.920296,38.070805 79.466705,37.728725 79.013115,37.386646 
	C79.356903,36.097332 79.700684,34.808018 80.321564,33.246643 
z"/>
<path fill="#1E78AF" opacity="1.000000" stroke="none" 
	d="
M50.309380,153.149796 
	C49.330406,149.995682 48.129250,147.004288 48.092117,143.998489 
	C47.897430,128.238922 47.967548,112.475586 48.031837,96.713913 
	C48.040199,94.664337 48.546318,92.616791 48.937298,89.710297 
	C50.716354,91.090744 51.688873,91.845352 52.794823,92.913963 
	C51.969498,94.473083 50.188942,95.709846 50.176174,96.964600 
	C50.005123,113.771858 50.020885,130.582291 50.205006,147.389572 
	C50.220390,148.794281 51.473984,150.599380 52.686382,151.497391 
	C55.983479,153.939514 59.567379,155.994400 63.123337,158.542618 
	C59.014122,157.023590 54.819183,155.164734 50.309380,153.149796 
z"/>
<path fill="#FDFCF3" opacity="1.000000" stroke="none" 
	d="
M55.677956,96.968178 
	C59.629463,98.702347 63.171066,100.452614 66.894775,102.502716 
	C65.480499,106.328529 62.625244,105.779114 59.251492,104.818306 
	C58.582687,104.290695 58.323338,104.104111 58.002903,104.002419 
	C56.279327,103.333832 54.555752,102.665237 52.423523,101.993896 
	C52.135971,99.696297 51.131832,96.670326 55.677956,96.968178 
z"/>
<path fill="#0F7EBD" opacity="1.000000" stroke="none" 
	d="
M43.002922,145.399124 
	C44.333477,146.827271 45.744045,148.603439 46.964733,150.501709 
	C47.854172,151.884872 48.493137,153.429108 49.621201,154.950165 
	C49.999138,155.165543 49.999653,155.332321 50.000237,155.749237 
	C47.769184,155.201462 45.538063,154.403534 43.153847,153.302795 
	C43.000214,151.933929 42.999680,150.867859 42.998657,149.402115 
	C42.999302,147.934784 43.000439,146.867126 43.002922,145.399124 
z"/>
<path fill="#1A7CB9" opacity="1.000000" stroke="none" 
	d="
M52.899849,160.795074 
	C52.842251,160.993118 52.672695,160.995132 52.248741,160.999542 
	C51.891384,160.773438 51.788433,160.544937 51.685482,160.316452 
	C52.052952,160.410660 52.420425,160.504852 52.899849,160.795074 
z"/>
<path fill="#23538B" opacity="1.000000" stroke="none" 
	d="
M110.372803,174.982239 
	C121.064873,168.365982 132.176483,161.761337 143.620972,155.056885 
	C144.217255,155.770920 144.480682,156.584763 144.868805,157.697525 
	C144.188309,158.098373 143.250824,157.968201 142.599152,158.339554 
	C138.071915,160.919342 133.604034,163.603287 129.051727,166.610474 
	C124.453941,169.452530 119.921547,171.937912 115.186081,174.685226 
	C113.586128,174.962723 112.189240,174.978287 110.372803,174.982239 
z"/>
<path fill="#23538B" opacity="1.000000" stroke="none" 
	d="
M107.162079,176.876404 
	C107.285843,176.487976 107.748116,176.117828 108.512131,175.688232 
	C108.376106,176.050766 107.938347,176.472733 107.162079,176.876404 
z"/>
<path fill="#0D56A2" opacity="1.000000" stroke="none" 
	d="
M115.002197,176.002777 
	C114.909248,176.039581 114.814102,176.073624 114.856720,176.051697 
	C114.994484,175.995728 115.000000,176.000000 115.002197,176.002777 
z"/>
<path fill="#23538B" opacity="1.000000" stroke="none" 
	d="
M108.967346,175.756470 
	C108.936050,175.522552 109.182358,175.270874 109.704834,174.987289 
	C109.735649,175.216476 109.490295,175.477585 108.967346,175.756470 
z"/>
<path fill="#1C5FA3" opacity="1.000000" stroke="none" 
	d="
M94.972969,152.993607 
	C95.274345,153.379044 95.532280,153.810913 95.885323,154.141113 
	C96.901787,155.091766 97.956657,156.001343 98.996429,156.927063 
	C99.664711,155.647369 100.895149,154.375488 100.913063,153.086777 
	C101.067726,141.962708 101.070763,130.834991 100.965630,119.709793 
	C100.932869,116.243225 101.358330,113.328117 106.002808,112.607224 
	C104.543678,109.672028 103.310356,107.191086 102.381454,104.383011 
	C103.550812,104.336647 104.415756,104.617416 105.280701,104.898178 
	C106.242012,107.747467 107.971924,110.580177 108.033852,113.448875 
	C108.328598,127.104042 108.348923,140.773422 108.013672,154.426590 
	C107.950226,157.010498 106.456802,160.790726 104.498680,161.769653 
	C102.294258,162.871735 98.817017,161.427872 95.543365,160.977417 
	C95.193298,160.863373 95.140587,160.909286 95.138359,160.607635 
	C94.753357,159.882278 94.370575,159.458588 93.987793,159.034897 
	C93.964340,158.855576 93.940880,158.676254 93.898880,157.823853 
	C93.929581,155.755768 93.978813,154.360748 94.264175,152.975800 
	C94.500305,152.985886 94.972969,152.993607 94.972969,152.993607 
z"/>
<path fill="#EDF7FA" opacity="1.000000" stroke="none" 
	d="
M94.028038,152.965714 
	C93.978813,154.360748 93.929581,155.755768 93.814957,157.565887 
	C93.166687,156.201599 92.111565,154.430588 92.079887,152.641449 
	C91.912445,143.182907 91.562607,133.692474 92.147606,124.267189 
	C92.587776,117.175423 90.340965,110.969810 88.101913,104.225250 
	C88.511108,104.209373 88.871941,104.586693 89.467896,105.097679 
	C89.703011,105.231354 89.720291,105.195923 89.780273,105.542435 
	C90.531921,106.317978 91.223587,106.747009 92.031143,107.470581 
	C95.966187,110.352821 95.432526,114.066559 94.777374,117.871826 
	C94.806747,117.924316 94.823357,117.805168 94.581268,117.906868 
	C94.268837,118.336266 94.198494,118.663963 94.029587,119.452042 
	C93.963364,130.930176 93.995697,141.947952 94.028038,152.965714 
z"/>
<path fill="#EFF8FB" opacity="1.000000" stroke="none" 
	d="
M57.634270,104.048508 
	C58.323338,104.104111 58.582687,104.290695 58.888546,104.779907 
	C58.406307,106.292145 57.816471,107.586670 57.226639,108.881195 
	C56.571655,108.535042 55.916672,108.188889 55.261692,107.842735 
	C55.929676,106.593361 56.597656,105.343987 57.634270,104.048508 
z"/>
<path fill="#EDF7FA" opacity="1.000000" stroke="none" 
	d="
M78.408943,101.819763 
	C76.459152,100.260109 74.795677,98.535271 72.943192,96.536301 
	C78.882538,96.559151 80.015694,97.587654 78.408943,101.819763 
z"/>
<path fill="#FEFEFE" opacity="1.000000" stroke="none" 
	d="
M114.817505,167.765900 
	C114.217735,168.655960 113.430237,169.303146 112.321945,169.976685 
	C112.877357,169.176376 113.753571,168.349686 114.817505,167.765900 
z"/>
<path fill="#EDF7FA" opacity="1.000000" stroke="none" 
	d="
M58.998940,84.998856 
	C59.540546,84.390900 60.083218,83.784081 60.625889,83.177254 
	C60.921227,83.457069 61.216568,83.736885 61.511906,84.016701 
	C60.902847,84.339439 60.293789,84.662178 59.343510,84.993591 
	C59.002293,85.002274 59.000000,85.000000 58.998940,84.998856 
z"/>
<path fill="#EDF7FA" opacity="1.000000" stroke="none" 
	d="
M77.168922,104.919037 
	C77.015434,104.350029 77.169327,103.772110 77.605957,103.078873 
	C77.751228,103.612419 77.613762,104.261269 77.168922,104.919037 
z"/>
<path fill="#EDF7FA" opacity="1.000000" stroke="none" 
	d="
M94.008904,159.342407 
	C94.370575,159.458588 94.753357,159.882278 95.171906,160.603699 
	C94.815132,160.484268 94.422577,160.067108 94.008904,159.342407 
z"/>
<path fill="#2869A4" opacity="1.000000" stroke="none" 
	d="
M105.246552,104.529083 
	C104.415756,104.617416 103.550812,104.336647 102.344543,104.027245 
	C102.003220,103.998611 102.000000,104.000000 101.981308,103.699722 
	C101.638451,102.932640 101.314285,102.465836 100.990112,101.999031 
	C99.678162,99.777077 98.125214,97.656456 97.134155,95.299568 
	C96.404144,93.563477 96.408348,91.518661 96.148773,89.193863 
	C96.577484,89.152061 96.942810,89.527794 97.532883,90.055298 
	C100.242561,94.858047 102.727486,99.509010 105.246552,104.529083 
z"/>
<path fill="#1865AC" opacity="1.000000" stroke="none" 
	d="
M98.993935,116.995102 
	C98.995758,125.243324 98.985954,133.491577 99.007133,141.739746 
	C99.012810,143.950500 99.253815,146.263245 95.465469,145.539398 
	C95.023285,137.053680 95.021118,129.030899 95.182434,120.917145 
	C95.408455,120.719620 95.549667,120.559006 95.519997,120.515831 
	C95.386711,120.321915 95.204865,120.161369 95.032166,119.738327 
	C95.016739,119.320961 95.009689,119.154045 94.977264,118.688690 
	C94.909042,118.195221 94.866196,118.000198 94.823357,117.805168 
	C94.823357,117.805168 94.806747,117.924316 95.144806,117.905640 
	C96.653221,117.589668 97.823578,117.292381 98.993935,116.995102 
z"/>
<path fill="#1C5FA3" opacity="1.000000" stroke="none" 
	d="
M98.994774,116.556305 
	C97.823578,117.292381 96.653221,117.589668 95.115440,117.853142 
	C95.432526,114.066559 95.966187,110.352821 92.053894,107.113983 
	C91.968719,105.986763 91.976677,105.510696 91.984627,105.034637 
	C98.737122,107.136452 99.002495,107.555954 98.994774,116.556305 
z"/>
<path fill="#2F6496" opacity="1.000000" stroke="none" 
	d="
M95.002647,118.987137 
	C95.009689,119.154045 95.016739,119.320961 95.019592,119.993034 
	C95.016571,120.668159 95.017761,120.838135 95.018951,121.008118 
	C95.021118,129.030899 95.023285,137.053680 95.047112,145.546616 
	C95.044441,148.051636 95.020103,150.086517 94.984375,152.557495 
	C94.972969,152.993607 94.500305,152.985886 94.264175,152.975800 
	C93.995697,141.947952 93.963364,130.930176 94.248215,119.452744 
	C94.565392,118.993080 95.002647,118.987137 95.002647,118.987137 
z"/>
<path fill="#2869A4" opacity="1.000000" stroke="none" 
	d="
M91.607109,105.033287 
	C91.976677,105.510696 91.968719,105.986763 91.938004,106.819427 
	C91.223587,106.747009 90.531921,106.317978 89.785782,105.557098 
	C90.230736,105.160812 90.730164,105.096375 91.607109,105.033287 
z"/>
<path fill="#1C5FA3" opacity="1.000000" stroke="none" 
	d="
M101.013252,102.297173 
	C101.314285,102.465836 101.638451,102.932640 101.981956,103.698402 
	C101.679665,103.530006 101.358032,103.062660 101.013252,102.297173 
z"/>
<path fill="#1C5FA3" opacity="1.000000" stroke="none" 
	d="
M94.977264,118.688690 
	C95.002647,118.987137 94.565392,118.993080 94.346771,118.992371 
	C94.198494,118.663963 94.268837,118.336266 94.581268,117.906868 
	C94.866196,118.000198 94.909042,118.195221 94.977264,118.688690 
z"/>
<path fill="#1C5FA3" opacity="1.000000" stroke="none" 
	d="
M95.182434,120.917145 
	C95.017761,120.838135 95.016571,120.668159 95.027962,120.243484 
	C95.204865,120.161369 95.386711,120.321915 95.519997,120.515831 
	C95.549667,120.559006 95.408455,120.719620 95.182434,120.917145 
z"/>
</svg>