<svg width="180" height="257" xmlns="http://www.w3.org/2000/svg" xmlns:xlink="http://www.w3.org/1999/xlink" xml:space="preserve" enable-background="new 0 0 851.5 256.799" version="1.1">
 <g>
  <title>Layer 1</title>
  <g id="svg_1">
   <defs>
    <path d="m104.785,2.456l-63.03201,36.119c-9.637,5.523 -12.929,17.839 -7.331,27.432l40.264,69.05099c0.159,0.272 0.342,0.528 0.548,0.76401l6.097,7c1.154,1.32399 1.528,3.157 0.985,4.827l-2.072,6.38899c-0.161,0.49901 -0.244,1.02 -0.244,1.54401l0,47.87599c0,5.326 4.019,9.97701 9.334,10.32101c5.825,0.377 10.666,-4.23601 10.666,-9.979l-0.004,-56.009l0.004,-7.397c0,-0.88699 -0.236,-1.758 -0.683,-2.52299l-46.527,-79.663c-0.841,-1.438 -0.349,-3.287 1.096,-4.116l57.539,-33.022c1.422,-0.817 3.237,-0.341 4.074,1.07l43.801,73.895c0.45799,0.77299 0.69899,1.656 0.698,2.55399l-0.01201,13.44l-0.062,82.28001c-0.00099,1.06499 -0.567,2.05199 -1.487,2.588l-65.89,38.457c-1.559,0.909 -3.486,0.90799 -5.044,-0.002l-66.01699,-38.58701c-0.92,-0.53799 -1.486,-1.52299 -1.486,-2.59l-0.192,-73.542c0,-2.32301 2.526,-3.76501 4.526,-2.583l26.70599,15.27299c2.023,1.19501 4.571,0.621 6.005,-1.658c1.437,-2.28099 1.004,-5.31899 -1.261,-6.65699l-42.347,-24.442l18.05801,-9.831c2.475,-1.397 4.5,-4.864 4.5,-7.705c0,-2.31 -2.488,-3.763 -4.5,-2.629l-28.81901,16.022c-0.098,0.051 -0.193,0.104 -0.287,0.162l-0.004,0.003c-0.004,0.001 -0.007,0.00401 -0.01,0.006c-0.177,0.11 -0.348,0.229 -0.51,0.36c-0.441,0.338 -0.801,0.745 -1.082,1.201c-0.038,0.058 -0.077,0.117 -0.112,0.178c-0.054,0.098 -0.106,0.195 -0.153,0.298c-0.324,0.65601 -0.518,1.397 -0.518,2.21001l0,95.05499c0,7.12001 3.829,13.757 9.967,17.30301l70.024,40.929c3.082,1.78099 6.537,2.67299 9.996,2.67198c3.469,0 6.944,-0.89598 10.051,-2.69199l69.926,-40.78c6.16499,-3.562 9.99399,-10.198 9.99399,-17.31299l0.04201,-102.73102c0,-0.88699 -0.23599,-1.758 -0.683,-2.52399l-43.547,-74.55c-6.578,-11.28 -14.56901,-16.21 -22.051,-16.21c-3.112,0 -6.136,0.852 -8.934,2.456" id="SVGID_1_"/>
    <linearGradient y2="0.50084" x2="1.00039" y1="0.50084" x1="0.00039" id="SVGID_3_">
     <stop stop-color="#0381C4" offset="0"/>
     <stop stop-color="#19418D" offset="1"/>
    </linearGradient>
   </defs>
   <clipPath id="SVGID_2_">
    <use id="svg_2" overflow="visible" xlink:href="#SVGID_1_"/>
   </clipPath>
   <rect id="svg_3" height="256.8" width="180" fill="url(#SVGID_3_)" clip-path="url(#SVGID_2_)"/>
  </g>
 </g>
</svg>